999
DXF from OpenSCAD
  0
SECTION
  2
HEADER
  9
$ACADVER
  1
AC1006
  9
$INSBASE
 10
0.0
 20
0.0
 30
0.0
  9
$EXTMIN
 10
-147
 20
-45
  9
$EXTMAX
 10
147
 20
45
  9
$LINMIN
 10
-147
 20
-45
  9
$LINMAX
 10
147
 20
45
  0
ENDSEC
  0
SECTION
  2
TABLES
  0
TABLE
  2
LTYPE
 70
1
  0
LTYPE
  2
CONTINUOUS
 70
64
  3
Solid line
 72
65
 73
0
 40
0.000000
  0
ENDTAB
  0
TABLE
  2
LAYER
 70
6
  0
LAYER
  2
0
 70
64
 62
7
  6
CONTINUOUS
  0
ENDTAB
  0
TABLE
  2
STYLE
 70
0
  0
ENDTAB
  0
ENDSEC
  0
SECTION
  2
BLOCKS
  0
ENDSEC
  0
SECTION
  2
ENTITIES
  0
LWPOLYLINE
100
AcDbEntity
  8
0
100
AcDbPolyline
 90
64
 70
1
 10
141.627
 20
-44.9671
 10
142.247
 20
-44.8689
 10
142.854
 20
-44.7063
 10
143.44
 20
-44.4813
 10
144
 20
-44.1962
 10
144.527
 20
-43.8541
 10
145.015
 20
-43.4589
 10
145.459
 20
-43.0148
 10
145.854
 20
-42.5267
 10
146.196
 20
-42
 10
146.481
 20
-41.4404
 10
146.706
 20
-40.8541
 10
146.869
 20
-40.2475
 10
146.967
 20
-39.6272
 10
147
 20
-39
 10
147
 20
39
 10
146.967
 20
39.6272
 10
146.869
 20
40.2475
 10
146.706
 20
40.8541
 10
146.481
 20
41.4404
 10
146.196
 20
42
 10
145.854
 20
42.5267
 10
145.459
 20
43.0148
 10
145.015
 20
43.4589
 10
144.527
 20
43.8541
 10
144
 20
44.1962
 10
143.44
 20
44.4813
 10
142.854
 20
44.7063
 10
142.247
 20
44.8689
 10
141.627
 20
44.9671
 10
141
 20
45
 10
-141
 20
45
 10
-141.627
 20
44.9671
 10
-142.247
 20
44.8689
 10
-142.854
 20
44.7063
 10
-143.44
 20
44.4813
 10
-144
 20
44.1962
 10
-144.527
 20
43.8541
 10
-145.015
 20
43.4589
 10
-145.459
 20
43.0148
 10
-145.854
 20
42.5267
 10
-146.196
 20
42
 10
-146.481
 20
41.4404
 10
-146.706
 20
40.8541
 10
-146.869
 20
40.2475
 10
-146.967
 20
39.6272
 10
-147
 20
39
 10
-147
 20
-39
 10
-146.967
 20
-39.6272
 10
-146.869
 20
-40.2475
 10
-146.706
 20
-40.8541
 10
-146.481
 20
-41.4404
 10
-146.196
 20
-42
 10
-145.854
 20
-42.5267
 10
-145.459
 20
-43.0148
 10
-145.015
 20
-43.4589
 10
-144.527
 20
-43.8541
 10
-144
 20
-44.1962
 10
-143.44
 20
-44.4813
 10
-142.854
 20
-44.7063
 10
-142.247
 20
-44.8689
 10
-141.627
 20
-44.9671
 10
-141
 20
-45
 10
141
 20
-45
  0
LWPOLYLINE
100
AcDbEntity
  8
0
100
AcDbPolyline
 90
60
 70
1
 10
-135.277
 20
30.3645
 10
-135.551
 20
30.4079
 10
-135.819
 20
30.4797
 10
-136.078
 20
30.5791
 10
-136.325
 20
30.705
 10
-136.558
 20
30.8561
 10
-136.773
 20
31.0307
 10
-136.969
 20
31.2268
 10
-137.144
 20
31.4424
 10
-137.295
 20
31.675
 10
-137.421
 20
31.9221
 10
-137.52
 20
32.1811
 10
-137.592
 20
32.449
 10
-137.635
 20
32.723
 10
-137.65
 20
33
 10
-137.635
 20
33.277
 10
-137.592
 20
33.551
 10
-137.52
 20
33.8189
 10
-137.421
 20
34.0779
 10
-137.295
 20
34.325
 10
-137.144
 20
34.5576
 10
-136.969
 20
34.7732
 10
-136.773
 20
34.9693
 10
-136.558
 20
35.1439
 10
-136.325
 20
35.295
 10
-136.078
 20
35.4209
 10
-135.819
 20
35.5203
 10
-135.551
 20
35.5921
 10
-135.277
 20
35.6355
 10
-135
 20
35.65
 10
-134.723
 20
35.6355
 10
-134.449
 20
35.5921
 10
-134.181
 20
35.5203
 10
-133.922
 20
35.4209
 10
-133.675
 20
35.295
 10
-133.442
 20
35.1439
 10
-133.227
 20
34.9693
 10
-133.031
 20
34.7732
 10
-132.856
 20
34.5576
 10
-132.705
 20
34.325
 10
-132.579
 20
34.0779
 10
-132.48
 20
33.8189
 10
-132.408
 20
33.551
 10
-132.365
 20
33.277
 10
-132.35
 20
33
 10
-132.365
 20
32.723
 10
-132.408
 20
32.449
 10
-132.48
 20
32.1811
 10
-132.579
 20
31.9221
 10
-132.705
 20
31.675
 10
-132.856
 20
31.4424
 10
-133.031
 20
31.2268
 10
-133.227
 20
31.0307
 10
-133.442
 20
30.8561
 10
-133.675
 20
30.705
 10
-133.922
 20
30.5791
 10
-134.181
 20
30.4797
 10
-134.449
 20
30.4079
 10
-134.723
 20
30.3645
 10
-135
 20
30.35
  0
LWPOLYLINE
100
AcDbEntity
  8
0
100
AcDbPolyline
 90
60
 70
1
 10
134.723
 20
30.3645
 10
134.449
 20
30.4079
 10
134.181
 20
30.4797
 10
133.922
 20
30.5791
 10
133.675
 20
30.705
 10
133.442
 20
30.8561
 10
133.227
 20
31.0307
 10
133.031
 20
31.2268
 10
132.856
 20
31.4424
 10
132.705
 20
31.675
 10
132.579
 20
31.9221
 10
132.48
 20
32.1811
 10
132.408
 20
32.449
 10
132.365
 20
32.723
 10
132.35
 20
33
 10
132.365
 20
33.277
 10
132.408
 20
33.551
 10
132.48
 20
33.8189
 10
132.579
 20
34.0779
 10
132.705
 20
34.325
 10
132.856
 20
34.5576
 10
133.031
 20
34.7732
 10
133.227
 20
34.9693
 10
133.442
 20
35.1439
 10
133.675
 20
35.295
 10
133.922
 20
35.4209
 10
134.181
 20
35.5203
 10
134.449
 20
35.5921
 10
134.723
 20
35.6355
 10
135
 20
35.65
 10
135.277
 20
35.6355
 10
135.551
 20
35.5921
 10
135.819
 20
35.5203
 10
136.078
 20
35.4209
 10
136.325
 20
35.295
 10
136.558
 20
35.1439
 10
136.773
 20
34.9693
 10
136.969
 20
34.7732
 10
137.144
 20
34.5576
 10
137.295
 20
34.325
 10
137.421
 20
34.0779
 10
137.52
 20
33.8189
 10
137.592
 20
33.551
 10
137.635
 20
33.277
 10
137.65
 20
33
 10
137.635
 20
32.723
 10
137.592
 20
32.449
 10
137.52
 20
32.1811
 10
137.421
 20
31.9221
 10
137.295
 20
31.675
 10
137.144
 20
31.4424
 10
136.969
 20
31.2268
 10
136.773
 20
31.0307
 10
136.558
 20
30.8561
 10
136.325
 20
30.705
 10
136.078
 20
30.5791
 10
135.819
 20
30.4797
 10
135.551
 20
30.4079
 10
135.277
 20
30.3645
 10
135
 20
30.35
  0
LWPOLYLINE
100
AcDbEntity
  8
0
100
AcDbPolyline
 90
60
 70
1
 10
-3.6585
 20
-34.8083
 10
-7.27691
 20
-34.2352
 10
-10.8156
 20
-33.287
 10
-14.2358
 20
-31.9741
 10
-17.5
 20
-30.3109
 10
-20.5725
 20
-28.3156
 10
-23.4196
 20
-26.0101
 10
-26.0101
 20
-23.4196
 10
-28.3156
 20
-20.5725
 10
-30.3109
 20
-17.5
 10
-31.9741
 20
-14.2358
 10
-33.287
 20
-10.8156
 10
-34.2352
 20
-7.27691
 10
-34.8083
 20
-3.6585
 10
-35
 20
0
 10
-34.8083
 20
3.6585
 10
-34.2352
 20
7.27691
 10
-33.287
 20
10.8156
 10
-31.9741
 20
14.2358
 10
-30.3109
 20
17.5
 10
-28.3156
 20
20.5725
 10
-26.0101
 20
23.4196
 10
-23.4196
 20
26.0101
 10
-20.5725
 20
28.3156
 10
-17.5
 20
30.3109
 10
-14.2358
 20
31.9741
 10
-10.8156
 20
33.287
 10
-7.27691
 20
34.2352
 10
-3.6585
 20
34.8083
 10
0
 20
35
 10
3.6585
 20
34.8083
 10
7.27691
 20
34.2352
 10
10.8156
 20
33.287
 10
14.2358
 20
31.9741
 10
17.5
 20
30.3109
 10
20.5725
 20
28.3156
 10
23.4196
 20
26.0101
 10
26.0101
 20
23.4196
 10
28.3156
 20
20.5725
 10
30.3109
 20
17.5
 10
31.9741
 20
14.2358
 10
33.287
 20
10.8156
 10
34.2352
 20
7.27691
 10
34.8083
 20
3.6585
 10
35
 20
0
 10
34.8083
 20
-3.6585
 10
34.2352
 20
-7.27691
 10
33.287
 20
-10.8156
 10
31.9741
 20
-14.2358
 10
30.3109
 20
-17.5
 10
28.3156
 20
-20.5725
 10
26.0101
 20
-23.4196
 10
23.4196
 20
-26.0101
 10
20.5725
 20
-28.3156
 10
17.5
 20
-30.3109
 10
14.2358
 20
-31.9741
 10
10.8156
 20
-33.287
 10
7.27691
 20
-34.2352
 10
3.6585
 20
-34.8083
 10
0
 20
-35
  0
LWPOLYLINE
100
AcDbEntity
  8
0
100
AcDbPolyline
 90
60
 70
1
 10
-135.277
 20
-35.6355
 10
-135.551
 20
-35.5921
 10
-135.819
 20
-35.5203
 10
-136.078
 20
-35.4209
 10
-136.325
 20
-35.295
 10
-136.558
 20
-35.1439
 10
-136.773
 20
-34.9693
 10
-136.969
 20
-34.7732
 10
-137.144
 20
-34.5576
 10
-137.295
 20
-34.325
 10
-137.421
 20
-34.0779
 10
-137.52
 20
-33.8189
 10
-137.592
 20
-33.551
 10
-137.635
 20
-33.277
 10
-137.65
 20
-33
 10
-137.635
 20
-32.723
 10
-137.592
 20
-32.449
 10
-137.52
 20
-32.1811
 10
-137.421
 20
-31.9221
 10
-137.295
 20
-31.675
 10
-137.144
 20
-31.4424
 10
-136.969
 20
-31.2268
 10
-136.773
 20
-31.0307
 10
-136.558
 20
-30.8561
 10
-136.325
 20
-30.705
 10
-136.078
 20
-30.5791
 10
-135.819
 20
-30.4797
 10
-135.551
 20
-30.4079
 10
-135.277
 20
-30.3645
 10
-135
 20
-30.35
 10
-134.723
 20
-30.3645
 10
-134.449
 20
-30.4079
 10
-134.181
 20
-30.4797
 10
-133.922
 20
-30.5791
 10
-133.675
 20
-30.705
 10
-133.442
 20
-30.8561
 10
-133.227
 20
-31.0307
 10
-133.031
 20
-31.2268
 10
-132.856
 20
-31.4424
 10
-132.705
 20
-31.675
 10
-132.579
 20
-31.9221
 10
-132.48
 20
-32.1811
 10
-132.408
 20
-32.449
 10
-132.365
 20
-32.723
 10
-132.35
 20
-33
 10
-132.365
 20
-33.277
 10
-132.408
 20
-33.551
 10
-132.48
 20
-33.8189
 10
-132.579
 20
-34.0779
 10
-132.705
 20
-34.325
 10
-132.856
 20
-34.5576
 10
-133.031
 20
-34.7732
 10
-133.227
 20
-34.9693
 10
-133.442
 20
-35.1439
 10
-133.675
 20
-35.295
 10
-133.922
 20
-35.4209
 10
-134.181
 20
-35.5203
 10
-134.449
 20
-35.5921
 10
-134.723
 20
-35.6355
 10
-135
 20
-35.65
  0
LWPOLYLINE
100
AcDbEntity
  8
0
100
AcDbPolyline
 90
60
 70
1
 10
134.723
 20
-35.6355
 10
134.449
 20
-35.5921
 10
134.181
 20
-35.5203
 10
133.922
 20
-35.4209
 10
133.675
 20
-35.295
 10
133.442
 20
-35.1439
 10
133.227
 20
-34.9693
 10
133.031
 20
-34.7732
 10
132.856
 20
-34.5576
 10
132.705
 20
-34.325
 10
132.579
 20
-34.0779
 10
132.48
 20
-33.8189
 10
132.408
 20
-33.551
 10
132.365
 20
-33.277
 10
132.35
 20
-33
 10
132.365
 20
-32.723
 10
132.408
 20
-32.449
 10
132.48
 20
-32.1811
 10
132.579
 20
-31.9221
 10
132.705
 20
-31.675
 10
132.856
 20
-31.4424
 10
133.031
 20
-31.2268
 10
133.227
 20
-31.0307
 10
133.442
 20
-30.8561
 10
133.675
 20
-30.705
 10
133.922
 20
-30.5791
 10
134.181
 20
-30.4797
 10
134.449
 20
-30.4079
 10
134.723
 20
-30.3645
 10
135
 20
-30.35
 10
135.277
 20
-30.3645
 10
135.551
 20
-30.4079
 10
135.819
 20
-30.4797
 10
136.078
 20
-30.5791
 10
136.325
 20
-30.705
 10
136.558
 20
-30.8561
 10
136.773
 20
-31.0307
 10
136.969
 20
-31.2268
 10
137.144
 20
-31.4424
 10
137.295
 20
-31.675
 10
137.421
 20
-31.9221
 10
137.52
 20
-32.1811
 10
137.592
 20
-32.449
 10
137.635
 20
-32.723
 10
137.65
 20
-33
 10
137.635
 20
-33.277
 10
137.592
 20
-33.551
 10
137.52
 20
-33.8189
 10
137.421
 20
-34.0779
 10
137.295
 20
-34.325
 10
137.144
 20
-34.5576
 10
136.969
 20
-34.7732
 10
136.773
 20
-34.9693
 10
136.558
 20
-35.1439
 10
136.325
 20
-35.295
 10
136.078
 20
-35.4209
 10
135.819
 20
-35.5203
 10
135.551
 20
-35.5921
 10
135.277
 20
-35.6355
 10
135
 20
-35.65
  0
ENDSEC
  0
EOF
