999
DXF from OpenSCAD
  0
SECTION
  2
HEADER
  9
$ACADVER
  1
AC1006
  9
$INSBASE
 10
0.0
 20
0.0
 30
0.0
  9
$EXTMIN
 10
-76
 20
-142.5
  9
$EXTMAX
 10
76
 20
142.5
  9
$LINMIN
 10
-76
 20
-142.5
  9
$LINMAX
 10
76
 20
142.5
  0
ENDSEC
  0
SECTION
  2
TABLES
  0
TABLE
  2
LTYPE
 70
1
  0
LTYPE
  2
CONTINUOUS
 70
64
  3
Solid line
 72
65
 73
0
 40
0.000000
  0
ENDTAB
  0
TABLE
  2
LAYER
 70
6
  0
LAYER
  2
0
 70
64
 62
7
  6
CONTINUOUS
  0
ENDTAB
  0
TABLE
  2
STYLE
 70
0
  0
ENDTAB
  0
ENDSEC
  0
SECTION
  2
BLOCKS
  0
ENDSEC
  0
SECTION
  2
ENTITIES
  0
LWPOLYLINE
100
AcDbEntity
  8
0
100
AcDbPolyline
 90
64
 70
1
 10
67.0453
 20
-142.445
 10
68.0791
 20
-142.281
 10
69.0902
 20
-142.011
 10
70.0674
 20
-141.635
 10
71
 20
-141.16
 10
71.8779
 20
-140.59
 10
72.6913
 20
-139.931
 10
73.4314
 20
-139.191
 10
74.0902
 20
-138.378
 10
74.6603
 20
-137.5
 10
75.1355
 20
-136.567
 10
75.5106
 20
-135.59
 10
75.7815
 20
-134.579
 10
75.9452
 20
-133.545
 10
76
 20
-132.5
 10
76
 20
132.5
 10
75.9452
 20
133.545
 10
75.7815
 20
134.579
 10
75.5106
 20
135.59
 10
75.1355
 20
136.567
 10
74.6603
 20
137.5
 10
74.0902
 20
138.378
 10
73.4314
 20
139.191
 10
72.6913
 20
139.931
 10
71.8779
 20
140.59
 10
71
 20
141.16
 10
70.0674
 20
141.635
 10
69.0902
 20
142.011
 10
68.0791
 20
142.281
 10
67.0453
 20
142.445
 10
66
 20
142.5
 10
-66
 20
142.5
 10
-67.0453
 20
142.445
 10
-68.0791
 20
142.281
 10
-69.0902
 20
142.011
 10
-70.0674
 20
141.635
 10
-71
 20
141.16
 10
-71.8779
 20
140.59
 10
-72.6913
 20
139.931
 10
-73.4314
 20
139.191
 10
-74.0902
 20
138.378
 10
-74.6603
 20
137.5
 10
-75.1355
 20
136.567
 10
-75.5106
 20
135.59
 10
-75.7815
 20
134.579
 10
-75.9452
 20
133.545
 10
-76
 20
132.5
 10
-76
 20
-132.5
 10
-75.9452
 20
-133.545
 10
-75.7815
 20
-134.579
 10
-75.5106
 20
-135.59
 10
-75.1355
 20
-136.567
 10
-74.6603
 20
-137.5
 10
-74.0902
 20
-138.378
 10
-73.4314
 20
-139.191
 10
-72.6913
 20
-139.931
 10
-71.8779
 20
-140.59
 10
-71
 20
-141.16
 10
-70.0674
 20
-141.635
 10
-69.0902
 20
-142.011
 10
-68.0791
 20
-142.281
 10
-67.0453
 20
-142.445
 10
-66
 20
-142.5
 10
66
 20
-142.5
  0
LWPOLYLINE
100
AcDbEntity
  8
0
100
AcDbPolyline
 90
60
 70
1
 10
-1.04528
 20
98.5548
 10
-2.07912
 20
98.7185
 10
-3.09017
 20
98.9894
 10
-4.06737
 20
99.3645
 10
-5
 20
99.8397
 10
-5.87785
 20
100.41
 10
-6.69131
 20
101.069
 10
-7.43145
 20
101.809
 10
-8.09017
 20
102.622
 10
-8.66025
 20
103.5
 10
-9.13545
 20
104.433
 10
-9.51057
 20
105.41
 10
-9.78148
 20
106.421
 10
-9.94522
 20
107.455
 10
-10
 20
108.5
 10
-9.94522
 20
109.545
 10
-9.78148
 20
110.579
 10
-9.51057
 20
111.59
 10
-9.13545
 20
112.567
 10
-8.66025
 20
113.5
 10
-8.09017
 20
114.378
 10
-7.43145
 20
115.191
 10
-6.69131
 20
115.931
 10
-5.87785
 20
116.59
 10
-5
 20
117.16
 10
-4.06737
 20
117.635
 10
-3.09017
 20
118.011
 10
-2.07912
 20
118.281
 10
-1.04528
 20
118.445
 10
0
 20
118.5
 10
1.04528
 20
118.445
 10
2.07912
 20
118.281
 10
3.09017
 20
118.011
 10
4.06737
 20
117.635
 10
5
 20
117.16
 10
5.87785
 20
116.59
 10
6.69131
 20
115.931
 10
7.43145
 20
115.191
 10
8.09017
 20
114.378
 10
8.66025
 20
113.5
 10
9.13545
 20
112.567
 10
9.51057
 20
111.59
 10
9.78148
 20
110.579
 10
9.94522
 20
109.545
 10
10
 20
108.5
 10
9.94522
 20
107.455
 10
9.78148
 20
106.421
 10
9.51057
 20
105.41
 10
9.13545
 20
104.433
 10
8.66025
 20
103.5
 10
8.09017
 20
102.622
 10
7.43145
 20
101.809
 10
6.69131
 20
101.069
 10
5.87785
 20
100.41
 10
5
 20
99.8397
 10
4.06737
 20
99.3645
 10
3.09017
 20
98.9894
 10
2.07912
 20
98.7185
 10
1.04528
 20
98.5548
 10
0
 20
98.5
  0
LWPOLYLINE
100
AcDbEntity
  8
0
100
AcDbPolyline
 90
60
 70
1
 10
-5.33095
 20
-33.2206
 10
-10.6035
 20
-32.3855
 10
-15.7599
 20
-31.0039
 10
-20.7436
 20
-29.0908
 10
-25.5
 20
-26.6673
 10
-29.977
 20
-23.7599
 10
-34.1257
 20
-20.4004
 10
-37.9004
 20
-16.6257
 10
-41.2599
 20
-12.477
 10
-44.1673
 20
-8
 10
-46.5908
 20
-3.24357
 10
-48.5039
 20
1.74013
 10
-49.8855
 20
6.8965
 10
-50.7206
 20
12.169
 10
-51
 20
17.5
 10
-50.7206
 20
22.831
 10
-49.8855
 20
28.1035
 10
-48.5039
 20
33.2599
 10
-46.5908
 20
38.2436
 10
-44.1673
 20
43
 10
-41.2599
 20
47.477
 10
-37.9004
 20
51.6257
 10
-34.1257
 20
55.4004
 10
-29.977
 20
58.7599
 10
-25.5
 20
61.6673
 10
-20.7436
 20
64.0908
 10
-15.7599
 20
66.0039
 10
-10.6035
 20
67.3855
 10
-5.33095
 20
68.2206
 10
0
 20
68.5
 10
5.33095
 20
68.2206
 10
10.6035
 20
67.3855
 10
15.7599
 20
66.0039
 10
20.7436
 20
64.0908
 10
25.5
 20
61.6673
 10
29.977
 20
58.7599
 10
34.1257
 20
55.4004
 10
37.9004
 20
51.6257
 10
41.2599
 20
47.477
 10
44.1673
 20
43
 10
46.5908
 20
38.2436
 10
48.5039
 20
33.2599
 10
49.8855
 20
28.1035
 10
50.7206
 20
22.831
 10
51
 20
17.5
 10
50.7206
 20
12.169
 10
49.8855
 20
6.8965
 10
48.5039
 20
1.74013
 10
46.5908
 20
-3.24357
 10
44.1673
 20
-8
 10
41.2599
 20
-12.477
 10
37.9004
 20
-16.6257
 10
34.1257
 20
-20.4004
 10
29.977
 20
-23.7599
 10
25.5
 20
-26.6673
 10
20.7436
 20
-29.0908
 10
15.7599
 20
-31.0039
 10
10.6035
 20
-32.3855
 10
5.33095
 20
-33.2206
 10
0
 20
-33.5
  0
LWPOLYLINE
100
AcDbEntity
  8
0
100
AcDbPolyline
 90
60
 70
1
 10
-71.277
 20
17.8645
 10
-71.551
 20
17.9079
 10
-71.8189
 20
17.9797
 10
-72.0779
 20
18.0791
 10
-72.325
 20
18.205
 10
-72.5576
 20
18.3561
 10
-72.7732
 20
18.5307
 10
-72.9693
 20
18.7268
 10
-73.1439
 20
18.9424
 10
-73.295
 20
19.175
 10
-73.4209
 20
19.4221
 10
-73.5203
 20
19.6811
 10
-73.5921
 20
19.949
 10
-73.6355
 20
20.223
 10
-73.65
 20
20.5
 10
-73.6355
 20
20.777
 10
-73.5921
 20
21.051
 10
-73.5203
 20
21.3189
 10
-73.4209
 20
21.5779
 10
-73.295
 20
21.825
 10
-73.1439
 20
22.0576
 10
-72.9693
 20
22.2732
 10
-72.7732
 20
22.4693
 10
-72.5576
 20
22.6439
 10
-72.325
 20
22.795
 10
-72.0779
 20
22.9209
 10
-71.8189
 20
23.0203
 10
-71.551
 20
23.0921
 10
-71.277
 20
23.1355
 10
-71
 20
23.15
 10
-70.723
 20
23.1355
 10
-70.449
 20
23.0921
 10
-70.1811
 20
23.0203
 10
-69.9221
 20
22.9209
 10
-69.675
 20
22.795
 10
-69.4424
 20
22.6439
 10
-69.2268
 20
22.4693
 10
-69.0307
 20
22.2732
 10
-68.8561
 20
22.0576
 10
-68.705
 20
21.825
 10
-68.5791
 20
21.5779
 10
-68.4797
 20
21.3189
 10
-68.4079
 20
21.051
 10
-68.3645
 20
20.777
 10
-68.35
 20
20.5
 10
-68.3645
 20
20.223
 10
-68.4079
 20
19.949
 10
-68.4797
 20
19.6811
 10
-68.5791
 20
19.4221
 10
-68.705
 20
19.175
 10
-68.8561
 20
18.9424
 10
-69.0307
 20
18.7268
 10
-69.2268
 20
18.5307
 10
-69.4424
 20
18.3561
 10
-69.675
 20
18.205
 10
-69.9221
 20
18.0791
 10
-70.1811
 20
17.9797
 10
-70.449
 20
17.9079
 10
-70.723
 20
17.8645
 10
-71
 20
17.85
  0
LWPOLYLINE
100
AcDbEntity
  8
0
100
AcDbPolyline
 90
60
 70
1
 10
70.723
 20
17.8645
 10
70.449
 20
17.9079
 10
70.1811
 20
17.9797
 10
69.9221
 20
18.0791
 10
69.675
 20
18.205
 10
69.4424
 20
18.3561
 10
69.2268
 20
18.5307
 10
69.0307
 20
18.7268
 10
68.8561
 20
18.9424
 10
68.705
 20
19.175
 10
68.5791
 20
19.4221
 10
68.4797
 20
19.6811
 10
68.4079
 20
19.949
 10
68.3645
 20
20.223
 10
68.35
 20
20.5
 10
68.3645
 20
20.777
 10
68.4079
 20
21.051
 10
68.4797
 20
21.3189
 10
68.5791
 20
21.5779
 10
68.705
 20
21.825
 10
68.8561
 20
22.0576
 10
69.0307
 20
22.2732
 10
69.2268
 20
22.4693
 10
69.4424
 20
22.6439
 10
69.675
 20
22.795
 10
69.9221
 20
22.9209
 10
70.1811
 20
23.0203
 10
70.449
 20
23.0921
 10
70.723
 20
23.1355
 10
71
 20
23.15
 10
71.277
 20
23.1355
 10
71.551
 20
23.0921
 10
71.8189
 20
23.0203
 10
72.0779
 20
22.9209
 10
72.325
 20
22.795
 10
72.5576
 20
22.6439
 10
72.7732
 20
22.4693
 10
72.9693
 20
22.2732
 10
73.1439
 20
22.0576
 10
73.295
 20
21.825
 10
73.4209
 20
21.5779
 10
73.5203
 20
21.3189
 10
73.5921
 20
21.051
 10
73.6355
 20
20.777
 10
73.65
 20
20.5
 10
73.6355
 20
20.223
 10
73.5921
 20
19.949
 10
73.5203
 20
19.6811
 10
73.4209
 20
19.4221
 10
73.295
 20
19.175
 10
73.1439
 20
18.9424
 10
72.9693
 20
18.7268
 10
72.7732
 20
18.5307
 10
72.5576
 20
18.3561
 10
72.325
 20
18.205
 10
72.0779
 20
18.0791
 10
71.8189
 20
17.9797
 10
71.551
 20
17.9079
 10
71.277
 20
17.8645
 10
71
 20
17.85
  0
LWPOLYLINE
100
AcDbEntity
  8
0
100
AcDbPolyline
 90
60
 70
1
 10
-71.277
 20
-18.1355
 10
-71.551
 20
-18.0921
 10
-71.8189
 20
-18.0203
 10
-72.0779
 20
-17.9209
 10
-72.325
 20
-17.795
 10
-72.5576
 20
-17.6439
 10
-72.7732
 20
-17.4693
 10
-72.9693
 20
-17.2732
 10
-73.1439
 20
-17.0576
 10
-73.295
 20
-16.825
 10
-73.4209
 20
-16.5779
 10
-73.5203
 20
-16.3189
 10
-73.5921
 20
-16.051
 10
-73.6355
 20
-15.777
 10
-73.65
 20
-15.5
 10
-73.6355
 20
-15.223
 10
-73.5921
 20
-14.949
 10
-73.5203
 20
-14.6811
 10
-73.4209
 20
-14.4221
 10
-73.295
 20
-14.175
 10
-73.1439
 20
-13.9424
 10
-72.9693
 20
-13.7268
 10
-72.7732
 20
-13.5307
 10
-72.5576
 20
-13.3561
 10
-72.325
 20
-13.205
 10
-72.0779
 20
-13.0791
 10
-71.8189
 20
-12.9797
 10
-71.551
 20
-12.9079
 10
-71.277
 20
-12.8645
 10
-71
 20
-12.85
 10
-70.723
 20
-12.8645
 10
-70.449
 20
-12.9079
 10
-70.1811
 20
-12.9797
 10
-69.9221
 20
-13.0791
 10
-69.675
 20
-13.205
 10
-69.4424
 20
-13.3561
 10
-69.2268
 20
-13.5307
 10
-69.0307
 20
-13.7268
 10
-68.8561
 20
-13.9424
 10
-68.705
 20
-14.175
 10
-68.5791
 20
-14.4221
 10
-68.4797
 20
-14.6811
 10
-68.4079
 20
-14.949
 10
-68.3645
 20
-15.223
 10
-68.35
 20
-15.5
 10
-68.3645
 20
-15.777
 10
-68.4079
 20
-16.051
 10
-68.4797
 20
-16.3189
 10
-68.5791
 20
-16.5779
 10
-68.705
 20
-16.825
 10
-68.8561
 20
-17.0576
 10
-69.0307
 20
-17.2732
 10
-69.2268
 20
-17.4693
 10
-69.4424
 20
-17.6439
 10
-69.675
 20
-17.795
 10
-69.9221
 20
-17.9209
 10
-70.1811
 20
-18.0203
 10
-70.449
 20
-18.0921
 10
-70.723
 20
-18.1355
 10
-71
 20
-18.15
  0
LWPOLYLINE
100
AcDbEntity
  8
0
100
AcDbPolyline
 90
60
 70
1
 10
70.723
 20
-18.1355
 10
70.449
 20
-18.0921
 10
70.1811
 20
-18.0203
 10
69.9221
 20
-17.9209
 10
69.675
 20
-17.795
 10
69.4424
 20
-17.6439
 10
69.2268
 20
-17.4693
 10
69.0307
 20
-17.2732
 10
68.8561
 20
-17.0576
 10
68.705
 20
-16.825
 10
68.5791
 20
-16.5779
 10
68.4797
 20
-16.3189
 10
68.4079
 20
-16.051
 10
68.3645
 20
-15.777
 10
68.35
 20
-15.5
 10
68.3645
 20
-15.223
 10
68.4079
 20
-14.949
 10
68.4797
 20
-14.6811
 10
68.5791
 20
-14.4221
 10
68.705
 20
-14.175
 10
68.8561
 20
-13.9424
 10
69.0307
 20
-13.7268
 10
69.2268
 20
-13.5307
 10
69.4424
 20
-13.3561
 10
69.675
 20
-13.205
 10
69.9221
 20
-13.0791
 10
70.1811
 20
-12.9797
 10
70.449
 20
-12.9079
 10
70.723
 20
-12.8645
 10
71
 20
-12.85
 10
71.277
 20
-12.8645
 10
71.551
 20
-12.9079
 10
71.8189
 20
-12.9797
 10
72.0779
 20
-13.0791
 10
72.325
 20
-13.205
 10
72.5576
 20
-13.3561
 10
72.7732
 20
-13.5307
 10
72.9693
 20
-13.7268
 10
73.1439
 20
-13.9424
 10
73.295
 20
-14.175
 10
73.4209
 20
-14.4221
 10
73.5203
 20
-14.6811
 10
73.5921
 20
-14.949
 10
73.6355
 20
-15.223
 10
73.65
 20
-15.5
 10
73.6355
 20
-15.777
 10
73.5921
 20
-16.051
 10
73.5203
 20
-16.3189
 10
73.4209
 20
-16.5779
 10
73.295
 20
-16.825
 10
73.1439
 20
-17.0576
 10
72.9693
 20
-17.2732
 10
72.7732
 20
-17.4693
 10
72.5576
 20
-17.6439
 10
72.325
 20
-17.795
 10
72.0779
 20
-17.9209
 10
71.8189
 20
-18.0203
 10
71.551
 20
-18.0921
 10
71.277
 20
-18.1355
 10
71
 20
-18.15
  0
LWPOLYLINE
100
AcDbEntity
  8
0
100
AcDbPolyline
 90
60
 70
1
 10
-0.836228
 20
-56.4562
 10
-1.66329
 20
-56.3252
 10
-2.47214
 20
-56.1085
 10
-3.25389
 20
-55.8084
 10
-4
 20
-55.4282
 10
-4.70228
 20
-54.9721
 10
-5.35304
 20
-54.4452
 10
-5.94516
 20
-53.853
 10
-6.47214
 20
-53.2023
 10
-6.9282
 20
-52.5
 10
-7.30836
 20
-51.7539
 10
-7.60845
 20
-50.9721
 10
-7.82518
 20
-50.1633
 10
-7.95618
 20
-49.3362
 10
-8
 20
-48.5
 10
-7.95618
 20
-47.6638
 10
-7.82518
 20
-46.8367
 10
-7.60845
 20
-46.0279
 10
-7.30836
 20
-45.2461
 10
-6.9282
 20
-44.5
 10
-6.47214
 20
-43.7977
 10
-5.94516
 20
-43.147
 10
-5.35304
 20
-42.5548
 10
-4.70228
 20
-42.0279
 10
-4
 20
-41.5718
 10
-3.25389
 20
-41.1916
 10
-2.47214
 20
-40.8915
 10
-1.66329
 20
-40.6748
 10
-0.836228
 20
-40.5438
 10
0
 20
-40.5
 10
0.836228
 20
-40.5438
 10
1.66329
 20
-40.6748
 10
2.47214
 20
-40.8915
 10
3.25389
 20
-41.1916
 10
4
 20
-41.5718
 10
4.70228
 20
-42.0279
 10
5.35304
 20
-42.5548
 10
5.94516
 20
-43.147
 10
6.47214
 20
-43.7977
 10
6.9282
 20
-44.5
 10
7.30836
 20
-45.2461
 10
7.60845
 20
-46.0279
 10
7.82518
 20
-46.8367
 10
7.95618
 20
-47.6638
 10
8
 20
-48.5
 10
7.95618
 20
-49.3362
 10
7.82518
 20
-50.1633
 10
7.60845
 20
-50.9721
 10
7.30836
 20
-51.7539
 10
6.9282
 20
-52.5
 10
6.47214
 20
-53.2023
 10
5.94516
 20
-53.853
 10
5.35304
 20
-54.4452
 10
4.70228
 20
-54.9721
 10
4
 20
-55.4282
 10
3.25389
 20
-55.8084
 10
2.47214
 20
-56.1085
 10
1.66329
 20
-56.3252
 10
0.836228
 20
-56.4562
 10
0
 20
-56.5
  0
LWPOLYLINE
100
AcDbEntity
  8
0
100
AcDbPolyline
 90
60
 70
1
 10
-3.6585
 20
-132.308
 10
-7.27691
 20
-131.735
 10
-10.8156
 20
-130.787
 10
-14.2358
 20
-129.474
 10
-17.5
 20
-127.811
 10
-20.5725
 20
-125.816
 10
-23.4196
 20
-123.51
 10
-26.0101
 20
-120.92
 10
-28.3156
 20
-118.072
 10
-30.3109
 20
-115
 10
-31.9741
 20
-111.736
 10
-33.287
 20
-108.316
 10
-34.2352
 20
-104.777
 10
-34.8083
 20
-101.158
 10
-35
 20
-97.5
 10
-34.8083
 20
-93.8415
 10
-34.2352
 20
-90.2231
 10
-33.287
 20
-86.6844
 10
-31.9741
 20
-83.2642
 10
-30.3109
 20
-80
 10
-28.3156
 20
-76.9275
 10
-26.0101
 20
-74.0804
 10
-23.4196
 20
-71.4899
 10
-20.5725
 20
-69.1844
 10
-17.5
 20
-67.1891
 10
-14.2358
 20
-65.5259
 10
-10.8156
 20
-64.213
 10
-7.27691
 20
-63.2648
 10
-3.6585
 20
-62.6917
 10
0
 20
-62.5
 10
3.6585
 20
-62.6917
 10
7.27691
 20
-63.2648
 10
10.8156
 20
-64.213
 10
14.2358
 20
-65.5259
 10
17.5
 20
-67.1891
 10
20.5725
 20
-69.1844
 10
23.4196
 20
-71.4899
 10
26.0101
 20
-74.0804
 10
28.3156
 20
-76.9275
 10
30.3109
 20
-80
 10
31.9741
 20
-83.2642
 10
33.287
 20
-86.6844
 10
34.2352
 20
-90.2231
 10
34.8083
 20
-93.8415
 10
35
 20
-97.5
 10
34.8083
 20
-101.158
 10
34.2352
 20
-104.777
 10
33.287
 20
-108.316
 10
31.9741
 20
-111.736
 10
30.3109
 20
-115
 10
28.3156
 20
-118.072
 10
26.0101
 20
-120.92
 10
23.4196
 20
-123.51
 10
20.5725
 20
-125.816
 10
17.5
 20
-127.811
 10
14.2358
 20
-129.474
 10
10.8156
 20
-130.787
 10
7.27691
 20
-131.735
 10
3.6585
 20
-132.308
 10
0
 20
-132.5
  0
ENDSEC
  0
EOF
