999
DXF from OpenSCAD
  0
SECTION
  2
HEADER
  9
$ACADVER
  1
AC1006
  9
$INSBASE
 10
0.0
 20
0.0
 30
0.0
  9
$EXTMIN
 10
-147
 20
-200
  9
$EXTMAX
 10
147
 20
200
  9
$LINMIN
 10
-147
 20
-200
  9
$LINMAX
 10
147
 20
200
  0
ENDSEC
  0
SECTION
  2
TABLES
  0
TABLE
  2
LTYPE
 70
1
  0
LTYPE
  2
CONTINUOUS
 70
64
  3
Solid line
 72
65
 73
0
 40
0.000000
  0
ENDTAB
  0
TABLE
  2
LAYER
 70
6
  0
LAYER
  2
0
 70
64
 62
7
  6
CONTINUOUS
  0
ENDTAB
  0
TABLE
  2
STYLE
 70
0
  0
ENDTAB
  0
ENDSEC
  0
SECTION
  2
BLOCKS
  0
ENDSEC
  0
SECTION
  2
ENTITIES
  0
LWPOLYLINE
100
AcDbEntity
  8
0
100
AcDbPolyline
 90
64
 70
1
 10
141.627
 20
-199.967
 10
142.247
 20
-199.869
 10
142.854
 20
-199.706
 10
143.44
 20
-199.481
 10
144
 20
-199.196
 10
144.527
 20
-198.854
 10
145.015
 20
-198.459
 10
145.459
 20
-198.015
 10
145.854
 20
-197.527
 10
146.196
 20
-197
 10
146.481
 20
-196.44
 10
146.706
 20
-195.854
 10
146.869
 20
-195.247
 10
146.967
 20
-194.627
 10
147
 20
-194
 10
147
 20
194
 10
146.967
 20
194.627
 10
146.869
 20
195.247
 10
146.706
 20
195.854
 10
146.481
 20
196.44
 10
146.196
 20
197
 10
145.854
 20
197.527
 10
145.459
 20
198.015
 10
145.015
 20
198.459
 10
144.527
 20
198.854
 10
144
 20
199.196
 10
143.44
 20
199.481
 10
142.854
 20
199.706
 10
142.247
 20
199.869
 10
141.627
 20
199.967
 10
141
 20
200
 10
-141
 20
200
 10
-141.627
 20
199.967
 10
-142.247
 20
199.869
 10
-142.854
 20
199.706
 10
-143.44
 20
199.481
 10
-144
 20
199.196
 10
-144.527
 20
198.854
 10
-145.015
 20
198.459
 10
-145.459
 20
198.015
 10
-145.854
 20
197.527
 10
-146.196
 20
197
 10
-146.481
 20
196.44
 10
-146.706
 20
195.854
 10
-146.869
 20
195.247
 10
-146.967
 20
194.627
 10
-147
 20
194
 10
-147
 20
-194
 10
-146.967
 20
-194.627
 10
-146.869
 20
-195.247
 10
-146.706
 20
-195.854
 10
-146.481
 20
-196.44
 10
-146.196
 20
-197
 10
-145.854
 20
-197.527
 10
-145.459
 20
-198.015
 10
-145.015
 20
-198.459
 10
-144.527
 20
-198.854
 10
-144
 20
-199.196
 10
-143.44
 20
-199.481
 10
-142.854
 20
-199.706
 10
-142.247
 20
-199.869
 10
-141.627
 20
-199.967
 10
-141
 20
-200
 10
141
 20
-200
  0
LWPOLYLINE
100
AcDbEntity
  8
0
100
AcDbPolyline
 90
60
 70
1
 10
-135.277
 20
185.365
 10
-135.551
 20
185.408
 10
-135.819
 20
185.48
 10
-136.078
 20
185.579
 10
-136.325
 20
185.705
 10
-136.558
 20
185.856
 10
-136.773
 20
186.031
 10
-136.969
 20
186.227
 10
-137.144
 20
186.442
 10
-137.295
 20
186.675
 10
-137.421
 20
186.922
 10
-137.52
 20
187.181
 10
-137.592
 20
187.449
 10
-137.635
 20
187.723
 10
-137.65
 20
188
 10
-137.635
 20
188.277
 10
-137.592
 20
188.551
 10
-137.52
 20
188.819
 10
-137.421
 20
189.078
 10
-137.295
 20
189.325
 10
-137.144
 20
189.558
 10
-136.969
 20
189.773
 10
-136.773
 20
189.969
 10
-136.558
 20
190.144
 10
-136.325
 20
190.295
 10
-136.078
 20
190.421
 10
-135.819
 20
190.52
 10
-135.551
 20
190.592
 10
-135.277
 20
190.635
 10
-135
 20
190.65
 10
-134.723
 20
190.635
 10
-134.449
 20
190.592
 10
-134.181
 20
190.52
 10
-133.922
 20
190.421
 10
-133.675
 20
190.295
 10
-133.442
 20
190.144
 10
-133.227
 20
189.969
 10
-133.031
 20
189.773
 10
-132.856
 20
189.558
 10
-132.705
 20
189.325
 10
-132.579
 20
189.078
 10
-132.48
 20
188.819
 10
-132.408
 20
188.551
 10
-132.365
 20
188.277
 10
-132.35
 20
188
 10
-132.365
 20
187.723
 10
-132.408
 20
187.449
 10
-132.48
 20
187.181
 10
-132.579
 20
186.922
 10
-132.705
 20
186.675
 10
-132.856
 20
186.442
 10
-133.031
 20
186.227
 10
-133.227
 20
186.031
 10
-133.442
 20
185.856
 10
-133.675
 20
185.705
 10
-133.922
 20
185.579
 10
-134.181
 20
185.48
 10
-134.449
 20
185.408
 10
-134.723
 20
185.365
 10
-135
 20
185.35
  0
LWPOLYLINE
100
AcDbEntity
  8
0
100
AcDbPolyline
 90
60
 70
1
 10
134.723
 20
185.365
 10
134.449
 20
185.408
 10
134.181
 20
185.48
 10
133.922
 20
185.579
 10
133.675
 20
185.705
 10
133.442
 20
185.856
 10
133.227
 20
186.031
 10
133.031
 20
186.227
 10
132.856
 20
186.442
 10
132.705
 20
186.675
 10
132.579
 20
186.922
 10
132.48
 20
187.181
 10
132.408
 20
187.449
 10
132.365
 20
187.723
 10
132.35
 20
188
 10
132.365
 20
188.277
 10
132.408
 20
188.551
 10
132.48
 20
188.819
 10
132.579
 20
189.078
 10
132.705
 20
189.325
 10
132.856
 20
189.558
 10
133.031
 20
189.773
 10
133.227
 20
189.969
 10
133.442
 20
190.144
 10
133.675
 20
190.295
 10
133.922
 20
190.421
 10
134.181
 20
190.52
 10
134.449
 20
190.592
 10
134.723
 20
190.635
 10
135
 20
190.65
 10
135.277
 20
190.635
 10
135.551
 20
190.592
 10
135.819
 20
190.52
 10
136.078
 20
190.421
 10
136.325
 20
190.295
 10
136.558
 20
190.144
 10
136.773
 20
189.969
 10
136.969
 20
189.773
 10
137.144
 20
189.558
 10
137.295
 20
189.325
 10
137.421
 20
189.078
 10
137.52
 20
188.819
 10
137.592
 20
188.551
 10
137.635
 20
188.277
 10
137.65
 20
188
 10
137.635
 20
187.723
 10
137.592
 20
187.449
 10
137.52
 20
187.181
 10
137.421
 20
186.922
 10
137.295
 20
186.675
 10
137.144
 20
186.442
 10
136.969
 20
186.227
 10
136.773
 20
186.031
 10
136.558
 20
185.856
 10
136.325
 20
185.705
 10
136.078
 20
185.579
 10
135.819
 20
185.48
 10
135.551
 20
185.408
 10
135.277
 20
185.365
 10
135
 20
185.35
  0
LWPOLYLINE
100
AcDbEntity
  8
0
100
AcDbPolyline
 90
60
 70
1
 10
-135.277
 20
-190.635
 10
-135.551
 20
-190.592
 10
-135.819
 20
-190.52
 10
-136.078
 20
-190.421
 10
-136.325
 20
-190.295
 10
-136.558
 20
-190.144
 10
-136.773
 20
-189.969
 10
-136.969
 20
-189.773
 10
-137.144
 20
-189.558
 10
-137.295
 20
-189.325
 10
-137.421
 20
-189.078
 10
-137.52
 20
-188.819
 10
-137.592
 20
-188.551
 10
-137.635
 20
-188.277
 10
-137.65
 20
-188
 10
-137.635
 20
-187.723
 10
-137.592
 20
-187.449
 10
-137.52
 20
-187.181
 10
-137.421
 20
-186.922
 10
-137.295
 20
-186.675
 10
-137.144
 20
-186.442
 10
-136.969
 20
-186.227
 10
-136.773
 20
-186.031
 10
-136.558
 20
-185.856
 10
-136.325
 20
-185.705
 10
-136.078
 20
-185.579
 10
-135.819
 20
-185.48
 10
-135.551
 20
-185.408
 10
-135.277
 20
-185.365
 10
-135
 20
-185.35
 10
-134.723
 20
-185.365
 10
-134.449
 20
-185.408
 10
-134.181
 20
-185.48
 10
-133.922
 20
-185.579
 10
-133.675
 20
-185.705
 10
-133.442
 20
-185.856
 10
-133.227
 20
-186.031
 10
-133.031
 20
-186.227
 10
-132.856
 20
-186.442
 10
-132.705
 20
-186.675
 10
-132.579
 20
-186.922
 10
-132.48
 20
-187.181
 10
-132.408
 20
-187.449
 10
-132.365
 20
-187.723
 10
-132.35
 20
-188
 10
-132.365
 20
-188.277
 10
-132.408
 20
-188.551
 10
-132.48
 20
-188.819
 10
-132.579
 20
-189.078
 10
-132.705
 20
-189.325
 10
-132.856
 20
-189.558
 10
-133.031
 20
-189.773
 10
-133.227
 20
-189.969
 10
-133.442
 20
-190.144
 10
-133.675
 20
-190.295
 10
-133.922
 20
-190.421
 10
-134.181
 20
-190.52
 10
-134.449
 20
-190.592
 10
-134.723
 20
-190.635
 10
-135
 20
-190.65
  0
LWPOLYLINE
100
AcDbEntity
  8
0
100
AcDbPolyline
 90
60
 70
1
 10
134.723
 20
-190.635
 10
134.449
 20
-190.592
 10
134.181
 20
-190.52
 10
133.922
 20
-190.421
 10
133.675
 20
-190.295
 10
133.442
 20
-190.144
 10
133.227
 20
-189.969
 10
133.031
 20
-189.773
 10
132.856
 20
-189.558
 10
132.705
 20
-189.325
 10
132.579
 20
-189.078
 10
132.48
 20
-188.819
 10
132.408
 20
-188.551
 10
132.365
 20
-188.277
 10
132.35
 20
-188
 10
132.365
 20
-187.723
 10
132.408
 20
-187.449
 10
132.48
 20
-187.181
 10
132.579
 20
-186.922
 10
132.705
 20
-186.675
 10
132.856
 20
-186.442
 10
133.031
 20
-186.227
 10
133.227
 20
-186.031
 10
133.442
 20
-185.856
 10
133.675
 20
-185.705
 10
133.922
 20
-185.579
 10
134.181
 20
-185.48
 10
134.449
 20
-185.408
 10
134.723
 20
-185.365
 10
135
 20
-185.35
 10
135.277
 20
-185.365
 10
135.551
 20
-185.408
 10
135.819
 20
-185.48
 10
136.078
 20
-185.579
 10
136.325
 20
-185.705
 10
136.558
 20
-185.856
 10
136.773
 20
-186.031
 10
136.969
 20
-186.227
 10
137.144
 20
-186.442
 10
137.295
 20
-186.675
 10
137.421
 20
-186.922
 10
137.52
 20
-187.181
 10
137.592
 20
-187.449
 10
137.635
 20
-187.723
 10
137.65
 20
-188
 10
137.635
 20
-188.277
 10
137.592
 20
-188.551
 10
137.52
 20
-188.819
 10
137.421
 20
-189.078
 10
137.295
 20
-189.325
 10
137.144
 20
-189.558
 10
136.969
 20
-189.773
 10
136.773
 20
-189.969
 10
136.558
 20
-190.144
 10
136.325
 20
-190.295
 10
136.078
 20
-190.421
 10
135.819
 20
-190.52
 10
135.551
 20
-190.592
 10
135.277
 20
-190.635
 10
135
 20
-190.65
  0
ENDSEC
  0
EOF
