999
DXF from OpenSCAD
  0
SECTION
  2
HEADER
  9
$ACADVER
  1
AC1006
  9
$INSBASE
 10
0.0
 20
0.0
 30
0.0
  9
$EXTMIN
 10
-160
 20
-200
  9
$EXTMAX
 10
160
 20
200
  9
$LINMIN
 10
-160
 20
-200
  9
$LINMAX
 10
160
 20
200
  0
ENDSEC
  0
SECTION
  2
TABLES
  0
TABLE
  2
LTYPE
 70
1
  0
LTYPE
  2
CONTINUOUS
 70
64
  3
Solid line
 72
65
 73
0
 40
0.000000
  0
ENDTAB
  0
TABLE
  2
LAYER
 70
6
  0
LAYER
  2
0
 70
64
 62
7
  6
CONTINUOUS
  0
ENDTAB
  0
TABLE
  2
STYLE
 70
0
  0
ENDTAB
  0
ENDSEC
  0
SECTION
  2
BLOCKS
  0
ENDSEC
  0
SECTION
  2
ENTITIES
  0
LWPOLYLINE
100
AcDbEntity
  8
0
100
AcDbPolyline
 90
64
 70
1
 10
154.627
 20
-199.967
 10
155.247
 20
-199.869
 10
155.854
 20
-199.706
 10
156.44
 20
-199.481
 10
157
 20
-199.196
 10
157.527
 20
-198.854
 10
158.015
 20
-198.459
 10
158.459
 20
-198.015
 10
158.854
 20
-197.527
 10
159.196
 20
-197
 10
159.481
 20
-196.44
 10
159.706
 20
-195.854
 10
159.869
 20
-195.247
 10
159.967
 20
-194.627
 10
160
 20
-194
 10
160
 20
194
 10
159.967
 20
194.627
 10
159.869
 20
195.247
 10
159.706
 20
195.854
 10
159.481
 20
196.44
 10
159.196
 20
197
 10
158.854
 20
197.527
 10
158.459
 20
198.015
 10
158.015
 20
198.459
 10
157.527
 20
198.854
 10
157
 20
199.196
 10
156.44
 20
199.481
 10
155.854
 20
199.706
 10
155.247
 20
199.869
 10
154.627
 20
199.967
 10
154
 20
200
 10
-154
 20
200
 10
-154.627
 20
199.967
 10
-155.247
 20
199.869
 10
-155.854
 20
199.706
 10
-156.44
 20
199.481
 10
-157
 20
199.196
 10
-157.527
 20
198.854
 10
-158.015
 20
198.459
 10
-158.459
 20
198.015
 10
-158.854
 20
197.527
 10
-159.196
 20
197
 10
-159.481
 20
196.44
 10
-159.706
 20
195.854
 10
-159.869
 20
195.247
 10
-159.967
 20
194.627
 10
-160
 20
194
 10
-160
 20
-194
 10
-159.967
 20
-194.627
 10
-159.869
 20
-195.247
 10
-159.706
 20
-195.854
 10
-159.481
 20
-196.44
 10
-159.196
 20
-197
 10
-158.854
 20
-197.527
 10
-158.459
 20
-198.015
 10
-158.015
 20
-198.459
 10
-157.527
 20
-198.854
 10
-157
 20
-199.196
 10
-156.44
 20
-199.481
 10
-155.854
 20
-199.706
 10
-155.247
 20
-199.869
 10
-154.627
 20
-199.967
 10
-154
 20
-200
 10
154
 20
-200
  0
LWPOLYLINE
100
AcDbEntity
  8
0
100
AcDbPolyline
 90
60
 70
1
 10
-148.277
 20
185.365
 10
-148.551
 20
185.408
 10
-148.819
 20
185.48
 10
-149.078
 20
185.579
 10
-149.325
 20
185.705
 10
-149.558
 20
185.856
 10
-149.773
 20
186.031
 10
-149.969
 20
186.227
 10
-150.144
 20
186.442
 10
-150.295
 20
186.675
 10
-150.421
 20
186.922
 10
-150.52
 20
187.181
 10
-150.592
 20
187.449
 10
-150.635
 20
187.723
 10
-150.65
 20
188
 10
-150.635
 20
188.277
 10
-150.592
 20
188.551
 10
-150.52
 20
188.819
 10
-150.421
 20
189.078
 10
-150.295
 20
189.325
 10
-150.144
 20
189.558
 10
-149.969
 20
189.773
 10
-149.773
 20
189.969
 10
-149.558
 20
190.144
 10
-149.325
 20
190.295
 10
-149.078
 20
190.421
 10
-148.819
 20
190.52
 10
-148.551
 20
190.592
 10
-148.277
 20
190.635
 10
-148
 20
190.65
 10
-147.723
 20
190.635
 10
-147.449
 20
190.592
 10
-147.181
 20
190.52
 10
-146.922
 20
190.421
 10
-146.675
 20
190.295
 10
-146.442
 20
190.144
 10
-146.227
 20
189.969
 10
-146.031
 20
189.773
 10
-145.856
 20
189.558
 10
-145.705
 20
189.325
 10
-145.579
 20
189.078
 10
-145.48
 20
188.819
 10
-145.408
 20
188.551
 10
-145.365
 20
188.277
 10
-145.35
 20
188
 10
-145.365
 20
187.723
 10
-145.408
 20
187.449
 10
-145.48
 20
187.181
 10
-145.579
 20
186.922
 10
-145.705
 20
186.675
 10
-145.856
 20
186.442
 10
-146.031
 20
186.227
 10
-146.227
 20
186.031
 10
-146.442
 20
185.856
 10
-146.675
 20
185.705
 10
-146.922
 20
185.579
 10
-147.181
 20
185.48
 10
-147.449
 20
185.408
 10
-147.723
 20
185.365
 10
-148
 20
185.35
  0
LWPOLYLINE
100
AcDbEntity
  8
0
100
AcDbPolyline
 90
60
 70
1
 10
147.723
 20
185.365
 10
147.449
 20
185.408
 10
147.181
 20
185.48
 10
146.922
 20
185.579
 10
146.675
 20
185.705
 10
146.442
 20
185.856
 10
146.227
 20
186.031
 10
146.031
 20
186.227
 10
145.856
 20
186.442
 10
145.705
 20
186.675
 10
145.579
 20
186.922
 10
145.48
 20
187.181
 10
145.408
 20
187.449
 10
145.365
 20
187.723
 10
145.35
 20
188
 10
145.365
 20
188.277
 10
145.408
 20
188.551
 10
145.48
 20
188.819
 10
145.579
 20
189.078
 10
145.705
 20
189.325
 10
145.856
 20
189.558
 10
146.031
 20
189.773
 10
146.227
 20
189.969
 10
146.442
 20
190.144
 10
146.675
 20
190.295
 10
146.922
 20
190.421
 10
147.181
 20
190.52
 10
147.449
 20
190.592
 10
147.723
 20
190.635
 10
148
 20
190.65
 10
148.277
 20
190.635
 10
148.551
 20
190.592
 10
148.819
 20
190.52
 10
149.078
 20
190.421
 10
149.325
 20
190.295
 10
149.558
 20
190.144
 10
149.773
 20
189.969
 10
149.969
 20
189.773
 10
150.144
 20
189.558
 10
150.295
 20
189.325
 10
150.421
 20
189.078
 10
150.52
 20
188.819
 10
150.592
 20
188.551
 10
150.635
 20
188.277
 10
150.65
 20
188
 10
150.635
 20
187.723
 10
150.592
 20
187.449
 10
150.52
 20
187.181
 10
150.421
 20
186.922
 10
150.295
 20
186.675
 10
150.144
 20
186.442
 10
149.969
 20
186.227
 10
149.773
 20
186.031
 10
149.558
 20
185.856
 10
149.325
 20
185.705
 10
149.078
 20
185.579
 10
148.819
 20
185.48
 10
148.551
 20
185.408
 10
148.277
 20
185.365
 10
148
 20
185.35
  0
LWPOLYLINE
100
AcDbEntity
  8
0
100
AcDbPolyline
 90
60
 70
1
 10
-148.277
 20
-2.63548
 10
-148.551
 20
-2.59209
 10
-148.819
 20
-2.5203
 10
-149.078
 20
-2.4209
 10
-149.325
 20
-2.29497
 10
-149.558
 20
-2.1439
 10
-149.773
 20
-1.96933
 10
-149.969
 20
-1.7732
 10
-150.144
 20
-1.55763
 10
-150.295
 20
-1.325
 10
-150.421
 20
-1.07785
 10
-150.52
 20
-0.818895
 10
-150.592
 20
-0.550966
 10
-150.635
 20
-0.277
 10
-150.65
 20
0
 10
-150.635
 20
0.277
 10
-150.592
 20
0.550966
 10
-150.52
 20
0.818895
 10
-150.421
 20
1.07785
 10
-150.295
 20
1.325
 10
-150.144
 20
1.55763
 10
-149.969
 20
1.7732
 10
-149.773
 20
1.96933
 10
-149.558
 20
2.1439
 10
-149.325
 20
2.29497
 10
-149.078
 20
2.4209
 10
-148.819
 20
2.5203
 10
-148.551
 20
2.59209
 10
-148.277
 20
2.63548
 10
-148
 20
2.65
 10
-147.723
 20
2.63548
 10
-147.449
 20
2.59209
 10
-147.181
 20
2.5203
 10
-146.922
 20
2.4209
 10
-146.675
 20
2.29497
 10
-146.442
 20
2.1439
 10
-146.227
 20
1.96933
 10
-146.031
 20
1.7732
 10
-145.856
 20
1.55763
 10
-145.705
 20
1.325
 10
-145.579
 20
1.07785
 10
-145.48
 20
0.818895
 10
-145.408
 20
0.550966
 10
-145.365
 20
0.277
 10
-145.35
 20
0
 10
-145.365
 20
-0.277
 10
-145.408
 20
-0.550966
 10
-145.48
 20
-0.818895
 10
-145.579
 20
-1.07785
 10
-145.705
 20
-1.325
 10
-145.856
 20
-1.55763
 10
-146.031
 20
-1.7732
 10
-146.227
 20
-1.96933
 10
-146.442
 20
-2.1439
 10
-146.675
 20
-2.29497
 10
-146.922
 20
-2.4209
 10
-147.181
 20
-2.5203
 10
-147.449
 20
-2.59209
 10
-147.723
 20
-2.63548
 10
-148
 20
-2.65
  0
LWPOLYLINE
100
AcDbEntity
  8
0
100
AcDbPolyline
 90
60
 70
1
 10
147.723
 20
-2.63548
 10
147.449
 20
-2.59209
 10
147.181
 20
-2.5203
 10
146.922
 20
-2.4209
 10
146.675
 20
-2.29497
 10
146.442
 20
-2.1439
 10
146.227
 20
-1.96933
 10
146.031
 20
-1.7732
 10
145.856
 20
-1.55763
 10
145.705
 20
-1.325
 10
145.579
 20
-1.07785
 10
145.48
 20
-0.818895
 10
145.408
 20
-0.550966
 10
145.365
 20
-0.277
 10
145.35
 20
0
 10
145.365
 20
0.277
 10
145.408
 20
0.550966
 10
145.48
 20
0.818895
 10
145.579
 20
1.07785
 10
145.705
 20
1.325
 10
145.856
 20
1.55763
 10
146.031
 20
1.7732
 10
146.227
 20
1.96933
 10
146.442
 20
2.1439
 10
146.675
 20
2.29497
 10
146.922
 20
2.4209
 10
147.181
 20
2.5203
 10
147.449
 20
2.59209
 10
147.723
 20
2.63548
 10
148
 20
2.65
 10
148.277
 20
2.63548
 10
148.551
 20
2.59209
 10
148.819
 20
2.5203
 10
149.078
 20
2.4209
 10
149.325
 20
2.29497
 10
149.558
 20
2.1439
 10
149.773
 20
1.96933
 10
149.969
 20
1.7732
 10
150.144
 20
1.55763
 10
150.295
 20
1.325
 10
150.421
 20
1.07785
 10
150.52
 20
0.818895
 10
150.592
 20
0.550966
 10
150.635
 20
0.277
 10
150.65
 20
0
 10
150.635
 20
-0.277
 10
150.592
 20
-0.550966
 10
150.52
 20
-0.818895
 10
150.421
 20
-1.07785
 10
150.295
 20
-1.325
 10
150.144
 20
-1.55763
 10
149.969
 20
-1.7732
 10
149.773
 20
-1.96933
 10
149.558
 20
-2.1439
 10
149.325
 20
-2.29497
 10
149.078
 20
-2.4209
 10
148.819
 20
-2.5203
 10
148.551
 20
-2.59209
 10
148.277
 20
-2.63548
 10
148
 20
-2.65
  0
LWPOLYLINE
100
AcDbEntity
  8
0
100
AcDbPolyline
 90
60
 70
1
 10
-148.277
 20
-190.635
 10
-148.551
 20
-190.592
 10
-148.819
 20
-190.52
 10
-149.078
 20
-190.421
 10
-149.325
 20
-190.295
 10
-149.558
 20
-190.144
 10
-149.773
 20
-189.969
 10
-149.969
 20
-189.773
 10
-150.144
 20
-189.558
 10
-150.295
 20
-189.325
 10
-150.421
 20
-189.078
 10
-150.52
 20
-188.819
 10
-150.592
 20
-188.551
 10
-150.635
 20
-188.277
 10
-150.65
 20
-188
 10
-150.635
 20
-187.723
 10
-150.592
 20
-187.449
 10
-150.52
 20
-187.181
 10
-150.421
 20
-186.922
 10
-150.295
 20
-186.675
 10
-150.144
 20
-186.442
 10
-149.969
 20
-186.227
 10
-149.773
 20
-186.031
 10
-149.558
 20
-185.856
 10
-149.325
 20
-185.705
 10
-149.078
 20
-185.579
 10
-148.819
 20
-185.48
 10
-148.551
 20
-185.408
 10
-148.277
 20
-185.365
 10
-148
 20
-185.35
 10
-147.723
 20
-185.365
 10
-147.449
 20
-185.408
 10
-147.181
 20
-185.48
 10
-146.922
 20
-185.579
 10
-146.675
 20
-185.705
 10
-146.442
 20
-185.856
 10
-146.227
 20
-186.031
 10
-146.031
 20
-186.227
 10
-145.856
 20
-186.442
 10
-145.705
 20
-186.675
 10
-145.579
 20
-186.922
 10
-145.48
 20
-187.181
 10
-145.408
 20
-187.449
 10
-145.365
 20
-187.723
 10
-145.35
 20
-188
 10
-145.365
 20
-188.277
 10
-145.408
 20
-188.551
 10
-145.48
 20
-188.819
 10
-145.579
 20
-189.078
 10
-145.705
 20
-189.325
 10
-145.856
 20
-189.558
 10
-146.031
 20
-189.773
 10
-146.227
 20
-189.969
 10
-146.442
 20
-190.144
 10
-146.675
 20
-190.295
 10
-146.922
 20
-190.421
 10
-147.181
 20
-190.52
 10
-147.449
 20
-190.592
 10
-147.723
 20
-190.635
 10
-148
 20
-190.65
  0
LWPOLYLINE
100
AcDbEntity
  8
0
100
AcDbPolyline
 90
60
 70
1
 10
147.723
 20
-190.635
 10
147.449
 20
-190.592
 10
147.181
 20
-190.52
 10
146.922
 20
-190.421
 10
146.675
 20
-190.295
 10
146.442
 20
-190.144
 10
146.227
 20
-189.969
 10
146.031
 20
-189.773
 10
145.856
 20
-189.558
 10
145.705
 20
-189.325
 10
145.579
 20
-189.078
 10
145.48
 20
-188.819
 10
145.408
 20
-188.551
 10
145.365
 20
-188.277
 10
145.35
 20
-188
 10
145.365
 20
-187.723
 10
145.408
 20
-187.449
 10
145.48
 20
-187.181
 10
145.579
 20
-186.922
 10
145.705
 20
-186.675
 10
145.856
 20
-186.442
 10
146.031
 20
-186.227
 10
146.227
 20
-186.031
 10
146.442
 20
-185.856
 10
146.675
 20
-185.705
 10
146.922
 20
-185.579
 10
147.181
 20
-185.48
 10
147.449
 20
-185.408
 10
147.723
 20
-185.365
 10
148
 20
-185.35
 10
148.277
 20
-185.365
 10
148.551
 20
-185.408
 10
148.819
 20
-185.48
 10
149.078
 20
-185.579
 10
149.325
 20
-185.705
 10
149.558
 20
-185.856
 10
149.773
 20
-186.031
 10
149.969
 20
-186.227
 10
150.144
 20
-186.442
 10
150.295
 20
-186.675
 10
150.421
 20
-186.922
 10
150.52
 20
-187.181
 10
150.592
 20
-187.449
 10
150.635
 20
-187.723
 10
150.65
 20
-188
 10
150.635
 20
-188.277
 10
150.592
 20
-188.551
 10
150.52
 20
-188.819
 10
150.421
 20
-189.078
 10
150.295
 20
-189.325
 10
150.144
 20
-189.558
 10
149.969
 20
-189.773
 10
149.773
 20
-189.969
 10
149.558
 20
-190.144
 10
149.325
 20
-190.295
 10
149.078
 20
-190.421
 10
148.819
 20
-190.52
 10
148.551
 20
-190.592
 10
148.277
 20
-190.635
 10
148
 20
-190.65
  0
ENDSEC
  0
EOF
