999
DXF from OpenSCAD
  0
SECTION
  2
HEADER
  9
$ACADVER
  1
AC1006
  9
$INSBASE
 10
0.0
 20
0.0
 30
0.0
  9
$EXTMIN
 10
-30
 20
-109
  9
$EXTMAX
 10
30
 20
109
  9
$LINMIN
 10
-30
 20
-109
  9
$LINMAX
 10
30
 20
109
  0
ENDSEC
  0
SECTION
  2
TABLES
  0
TABLE
  2
LTYPE
 70
1
  0
LTYPE
  2
CONTINUOUS
 70
64
  3
Solid line
 72
65
 73
0
 40
0.000000
  0
ENDTAB
  0
TABLE
  2
LAYER
 70
6
  0
LAYER
  2
0
 70
64
 62
7
  6
CONTINUOUS
  0
ENDTAB
  0
TABLE
  2
STYLE
 70
0
  0
ENDTAB
  0
ENDSEC
  0
SECTION
  2
BLOCKS
  0
ENDSEC
  0
SECTION
  2
ENTITIES
  0
LWPOLYLINE
100
AcDbEntity
  8
0
100
AcDbPolyline
 90
64
 70
1
 10
22.8362
 20
-108.956
 10
23.6633
 20
-108.825
 10
24.4721
 20
-108.608
 10
25.2539
 20
-108.308
 10
26
 20
-107.928
 10
26.7023
 20
-107.472
 10
27.353
 20
-106.945
 10
27.9452
 20
-106.353
 10
28.4721
 20
-105.702
 10
28.9282
 20
-105
 10
29.3084
 20
-104.254
 10
29.6085
 20
-103.472
 10
29.8252
 20
-102.663
 10
29.9562
 20
-101.836
 10
30
 20
-101
 10
30
 20
101
 10
29.9562
 20
101.836
 10
29.8252
 20
102.663
 10
29.6085
 20
103.472
 10
29.3084
 20
104.254
 10
28.9282
 20
105
 10
28.4721
 20
105.702
 10
27.9452
 20
106.353
 10
27.353
 20
106.945
 10
26.7023
 20
107.472
 10
26
 20
107.928
 10
25.2539
 20
108.308
 10
24.4721
 20
108.608
 10
23.6633
 20
108.825
 10
22.8362
 20
108.956
 10
22
 20
109
 10
-22
 20
109
 10
-22.8362
 20
108.956
 10
-23.6633
 20
108.825
 10
-24.4721
 20
108.608
 10
-25.2539
 20
108.308
 10
-26
 20
107.928
 10
-26.7023
 20
107.472
 10
-27.353
 20
106.945
 10
-27.9452
 20
106.353
 10
-28.4721
 20
105.702
 10
-28.9282
 20
105
 10
-29.3084
 20
104.254
 10
-29.6085
 20
103.472
 10
-29.8252
 20
102.663
 10
-29.9562
 20
101.836
 10
-30
 20
101
 10
-30
 20
-101
 10
-29.9562
 20
-101.836
 10
-29.8252
 20
-102.663
 10
-29.6085
 20
-103.472
 10
-29.3084
 20
-104.254
 10
-28.9282
 20
-105
 10
-28.4721
 20
-105.702
 10
-27.9452
 20
-106.353
 10
-27.353
 20
-106.945
 10
-26.7023
 20
-107.472
 10
-26
 20
-107.928
 10
-25.2539
 20
-108.308
 10
-24.4721
 20
-108.608
 10
-23.6633
 20
-108.825
 10
-22.8362
 20
-108.956
 10
-22
 20
-109
 10
22
 20
-109
  0
LWPOLYLINE
100
AcDbEntity
  8
0
100
AcDbPolyline
 90
60
 70
1
 10
-18.277
 20
94.3645
 10
-18.551
 20
94.4079
 10
-18.8189
 20
94.4797
 10
-19.0779
 20
94.5791
 10
-19.325
 20
94.705
 10
-19.5576
 20
94.8561
 10
-19.7732
 20
95.0307
 10
-19.9693
 20
95.2268
 10
-20.1439
 20
95.4424
 10
-20.295
 20
95.675
 10
-20.4209
 20
95.9221
 10
-20.5203
 20
96.1811
 10
-20.5921
 20
96.449
 10
-20.6355
 20
96.723
 10
-20.65
 20
97
 10
-20.6355
 20
97.277
 10
-20.5921
 20
97.551
 10
-20.5203
 20
97.8189
 10
-20.4209
 20
98.0779
 10
-20.295
 20
98.325
 10
-20.1439
 20
98.5576
 10
-19.9693
 20
98.7732
 10
-19.7732
 20
98.9693
 10
-19.5576
 20
99.1439
 10
-19.325
 20
99.295
 10
-19.0779
 20
99.4209
 10
-18.8189
 20
99.5203
 10
-18.551
 20
99.5921
 10
-18.277
 20
99.6355
 10
-18
 20
99.65
 10
-17.723
 20
99.6355
 10
-17.449
 20
99.5921
 10
-17.1811
 20
99.5203
 10
-16.9221
 20
99.4209
 10
-16.675
 20
99.295
 10
-16.4424
 20
99.1439
 10
-16.2268
 20
98.9693
 10
-16.0307
 20
98.7732
 10
-15.8561
 20
98.5576
 10
-15.705
 20
98.325
 10
-15.5791
 20
98.0779
 10
-15.4797
 20
97.8189
 10
-15.4079
 20
97.551
 10
-15.3645
 20
97.277
 10
-15.35
 20
97
 10
-15.3645
 20
96.723
 10
-15.4079
 20
96.449
 10
-15.4797
 20
96.1811
 10
-15.5791
 20
95.9221
 10
-15.705
 20
95.675
 10
-15.8561
 20
95.4424
 10
-16.0307
 20
95.2268
 10
-16.2268
 20
95.0307
 10
-16.4424
 20
94.8561
 10
-16.675
 20
94.705
 10
-16.9221
 20
94.5791
 10
-17.1811
 20
94.4797
 10
-17.449
 20
94.4079
 10
-17.723
 20
94.3645
 10
-18
 20
94.35
  0
LWPOLYLINE
100
AcDbEntity
  8
0
100
AcDbPolyline
 90
60
 70
1
 10
17.723
 20
94.3645
 10
17.449
 20
94.4079
 10
17.1811
 20
94.4797
 10
16.9221
 20
94.5791
 10
16.675
 20
94.705
 10
16.4424
 20
94.8561
 10
16.2268
 20
95.0307
 10
16.0307
 20
95.2268
 10
15.8561
 20
95.4424
 10
15.705
 20
95.675
 10
15.5791
 20
95.9221
 10
15.4797
 20
96.1811
 10
15.4079
 20
96.449
 10
15.3645
 20
96.723
 10
15.35
 20
97
 10
15.3645
 20
97.277
 10
15.4079
 20
97.551
 10
15.4797
 20
97.8189
 10
15.5791
 20
98.0779
 10
15.705
 20
98.325
 10
15.8561
 20
98.5576
 10
16.0307
 20
98.7732
 10
16.2268
 20
98.9693
 10
16.4424
 20
99.1439
 10
16.675
 20
99.295
 10
16.9221
 20
99.4209
 10
17.1811
 20
99.5203
 10
17.449
 20
99.5921
 10
17.723
 20
99.6355
 10
18
 20
99.65
 10
18.277
 20
99.6355
 10
18.551
 20
99.5921
 10
18.8189
 20
99.5203
 10
19.0779
 20
99.4209
 10
19.325
 20
99.295
 10
19.5576
 20
99.1439
 10
19.7732
 20
98.9693
 10
19.9693
 20
98.7732
 10
20.1439
 20
98.5576
 10
20.295
 20
98.325
 10
20.4209
 20
98.0779
 10
20.5203
 20
97.8189
 10
20.5921
 20
97.551
 10
20.6355
 20
97.277
 10
20.65
 20
97
 10
20.6355
 20
96.723
 10
20.5921
 20
96.449
 10
20.5203
 20
96.1811
 10
20.4209
 20
95.9221
 10
20.295
 20
95.675
 10
20.1439
 20
95.4424
 10
19.9693
 20
95.2268
 10
19.7732
 20
95.0307
 10
19.5576
 20
94.8561
 10
19.325
 20
94.705
 10
19.0779
 20
94.5791
 10
18.8189
 20
94.4797
 10
18.551
 20
94.4079
 10
18.277
 20
94.3645
 10
18
 20
94.35
  0
LWPOLYLINE
100
AcDbEntity
  8
0
100
AcDbPolyline
 90
60
 70
1
 10
-18.277
 20
-99.6355
 10
-18.551
 20
-99.5921
 10
-18.8189
 20
-99.5203
 10
-19.0779
 20
-99.4209
 10
-19.325
 20
-99.295
 10
-19.5576
 20
-99.1439
 10
-19.7732
 20
-98.9693
 10
-19.9693
 20
-98.7732
 10
-20.1439
 20
-98.5576
 10
-20.295
 20
-98.325
 10
-20.4209
 20
-98.0779
 10
-20.5203
 20
-97.8189
 10
-20.5921
 20
-97.551
 10
-20.6355
 20
-97.277
 10
-20.65
 20
-97
 10
-20.6355
 20
-96.723
 10
-20.5921
 20
-96.449
 10
-20.5203
 20
-96.1811
 10
-20.4209
 20
-95.9221
 10
-20.295
 20
-95.675
 10
-20.1439
 20
-95.4424
 10
-19.9693
 20
-95.2268
 10
-19.7732
 20
-95.0307
 10
-19.5576
 20
-94.8561
 10
-19.325
 20
-94.705
 10
-19.0779
 20
-94.5791
 10
-18.8189
 20
-94.4797
 10
-18.551
 20
-94.4079
 10
-18.277
 20
-94.3645
 10
-18
 20
-94.35
 10
-17.723
 20
-94.3645
 10
-17.449
 20
-94.4079
 10
-17.1811
 20
-94.4797
 10
-16.9221
 20
-94.5791
 10
-16.675
 20
-94.705
 10
-16.4424
 20
-94.8561
 10
-16.2268
 20
-95.0307
 10
-16.0307
 20
-95.2268
 10
-15.8561
 20
-95.4424
 10
-15.705
 20
-95.675
 10
-15.5791
 20
-95.9221
 10
-15.4797
 20
-96.1811
 10
-15.4079
 20
-96.449
 10
-15.3645
 20
-96.723
 10
-15.35
 20
-97
 10
-15.3645
 20
-97.277
 10
-15.4079
 20
-97.551
 10
-15.4797
 20
-97.8189
 10
-15.5791
 20
-98.0779
 10
-15.705
 20
-98.325
 10
-15.8561
 20
-98.5576
 10
-16.0307
 20
-98.7732
 10
-16.2268
 20
-98.9693
 10
-16.4424
 20
-99.1439
 10
-16.675
 20
-99.295
 10
-16.9221
 20
-99.4209
 10
-17.1811
 20
-99.5203
 10
-17.449
 20
-99.5921
 10
-17.723
 20
-99.6355
 10
-18
 20
-99.65
  0
LWPOLYLINE
100
AcDbEntity
  8
0
100
AcDbPolyline
 90
60
 70
1
 10
17.723
 20
-99.6355
 10
17.449
 20
-99.5921
 10
17.1811
 20
-99.5203
 10
16.9221
 20
-99.4209
 10
16.675
 20
-99.295
 10
16.4424
 20
-99.1439
 10
16.2268
 20
-98.9693
 10
16.0307
 20
-98.7732
 10
15.8561
 20
-98.5576
 10
15.705
 20
-98.325
 10
15.5791
 20
-98.0779
 10
15.4797
 20
-97.8189
 10
15.4079
 20
-97.551
 10
15.3645
 20
-97.277
 10
15.35
 20
-97
 10
15.3645
 20
-96.723
 10
15.4079
 20
-96.449
 10
15.4797
 20
-96.1811
 10
15.5791
 20
-95.9221
 10
15.705
 20
-95.675
 10
15.8561
 20
-95.4424
 10
16.0307
 20
-95.2268
 10
16.2268
 20
-95.0307
 10
16.4424
 20
-94.8561
 10
16.675
 20
-94.705
 10
16.9221
 20
-94.5791
 10
17.1811
 20
-94.4797
 10
17.449
 20
-94.4079
 10
17.723
 20
-94.3645
 10
18
 20
-94.35
 10
18.277
 20
-94.3645
 10
18.551
 20
-94.4079
 10
18.8189
 20
-94.4797
 10
19.0779
 20
-94.5791
 10
19.325
 20
-94.705
 10
19.5576
 20
-94.8561
 10
19.7732
 20
-95.0307
 10
19.9693
 20
-95.2268
 10
20.1439
 20
-95.4424
 10
20.295
 20
-95.675
 10
20.4209
 20
-95.9221
 10
20.5203
 20
-96.1811
 10
20.5921
 20
-96.449
 10
20.6355
 20
-96.723
 10
20.65
 20
-97
 10
20.6355
 20
-97.277
 10
20.5921
 20
-97.551
 10
20.5203
 20
-97.8189
 10
20.4209
 20
-98.0779
 10
20.295
 20
-98.325
 10
20.1439
 20
-98.5576
 10
19.9693
 20
-98.7732
 10
19.7732
 20
-98.9693
 10
19.5576
 20
-99.1439
 10
19.325
 20
-99.295
 10
19.0779
 20
-99.4209
 10
18.8189
 20
-99.5203
 10
18.551
 20
-99.5921
 10
18.277
 20
-99.6355
 10
18
 20
-99.65
  0
ENDSEC
  0
EOF
