999
DXF from OpenSCAD
  0
SECTION
  2
HEADER
  9
$ACADVER
  1
AC1006
  9
$INSBASE
 10
0.0
 20
0.0
 30
0.0
  9
$EXTMIN
 10
-165
 20
-160
  9
$EXTMAX
 10
165
 20
160
  9
$LINMIN
 10
-165
 20
-160
  9
$LINMAX
 10
165
 20
160
  0
ENDSEC
  0
SECTION
  2
TABLES
  0
TABLE
  2
LTYPE
 70
1
  0
LTYPE
  2
CONTINUOUS
 70
64
  3
Solid line
 72
65
 73
0
 40
0.000000
  0
ENDTAB
  0
TABLE
  2
LAYER
 70
6
  0
LAYER
  2
0
 70
64
 62
7
  6
CONTINUOUS
  0
ENDTAB
  0
TABLE
  2
STYLE
 70
0
  0
ENDTAB
  0
ENDSEC
  0
SECTION
  2
BLOCKS
  0
ENDSEC
  0
SECTION
  2
ENTITIES
  0
LWPOLYLINE
100
AcDbEntity
  8
0
100
AcDbPolyline
 90
64
 70
1
 10
154.254
 20
-159.934
 10
155.495
 20
-159.738
 10
156.708
 20
-159.413
 10
157.881
 20
-158.963
 10
159
 20
-158.392
 10
160.053
 20
-157.708
 10
161.03
 20
-156.918
 10
161.918
 20
-156.03
 10
162.708
 20
-155.053
 10
163.392
 20
-154
 10
163.963
 20
-152.881
 10
164.413
 20
-151.708
 10
164.738
 20
-150.495
 10
164.934
 20
-149.254
 10
165
 20
-148
 10
165
 20
148
 10
164.934
 20
149.254
 10
164.738
 20
150.495
 10
164.413
 20
151.708
 10
163.963
 20
152.881
 10
163.392
 20
154
 10
162.708
 20
155.053
 10
161.918
 20
156.03
 10
161.03
 20
156.918
 10
160.053
 20
157.708
 10
159
 20
158.392
 10
157.881
 20
158.963
 10
156.708
 20
159.413
 10
155.495
 20
159.738
 10
154.254
 20
159.934
 10
153
 20
160
 10
-153
 20
160
 10
-154.254
 20
159.934
 10
-155.495
 20
159.738
 10
-156.708
 20
159.413
 10
-157.881
 20
158.963
 10
-159
 20
158.392
 10
-160.053
 20
157.708
 10
-161.03
 20
156.918
 10
-161.918
 20
156.03
 10
-162.708
 20
155.053
 10
-163.392
 20
154
 10
-163.963
 20
152.881
 10
-164.413
 20
151.708
 10
-164.738
 20
150.495
 10
-164.934
 20
149.254
 10
-165
 20
148
 10
-165
 20
-148
 10
-164.934
 20
-149.254
 10
-164.738
 20
-150.495
 10
-164.413
 20
-151.708
 10
-163.963
 20
-152.881
 10
-163.392
 20
-154
 10
-162.708
 20
-155.053
 10
-161.918
 20
-156.03
 10
-161.03
 20
-156.918
 10
-160.053
 20
-157.708
 10
-159
 20
-158.392
 10
-157.881
 20
-158.963
 10
-156.708
 20
-159.413
 10
-155.495
 20
-159.738
 10
-154.254
 20
-159.934
 10
-153
 20
-160
 10
153
 20
-160
  0
LWPOLYLINE
100
AcDbEntity
  8
0
100
AcDbPolyline
 90
60
 70
1
 10
-71.277
 20
20.3645
 10
-71.551
 20
20.4079
 10
-71.8189
 20
20.4797
 10
-72.0779
 20
20.5791
 10
-72.325
 20
20.705
 10
-72.5576
 20
20.8561
 10
-72.7732
 20
21.0307
 10
-72.9693
 20
21.2268
 10
-73.1439
 20
21.4424
 10
-73.295
 20
21.675
 10
-73.4209
 20
21.9221
 10
-73.5203
 20
22.1811
 10
-73.5921
 20
22.449
 10
-73.6355
 20
22.723
 10
-73.65
 20
23
 10
-73.6355
 20
23.277
 10
-73.5921
 20
23.551
 10
-73.5203
 20
23.8189
 10
-73.4209
 20
24.0779
 10
-73.295
 20
24.325
 10
-73.1439
 20
24.5576
 10
-72.9693
 20
24.7732
 10
-72.7732
 20
24.9693
 10
-72.5576
 20
25.1439
 10
-72.325
 20
25.295
 10
-72.0779
 20
25.4209
 10
-71.8189
 20
25.5203
 10
-71.551
 20
25.5921
 10
-71.277
 20
25.6355
 10
-71
 20
25.65
 10
-70.723
 20
25.6355
 10
-70.449
 20
25.5921
 10
-70.1811
 20
25.5203
 10
-69.9221
 20
25.4209
 10
-69.675
 20
25.295
 10
-69.4424
 20
25.1439
 10
-69.2268
 20
24.9693
 10
-69.0307
 20
24.7732
 10
-68.8561
 20
24.5576
 10
-68.705
 20
24.325
 10
-68.5791
 20
24.0779
 10
-68.4797
 20
23.8189
 10
-68.4079
 20
23.551
 10
-68.3645
 20
23.277
 10
-68.35
 20
23
 10
-68.3645
 20
22.723
 10
-68.4079
 20
22.449
 10
-68.4797
 20
22.1811
 10
-68.5791
 20
21.9221
 10
-68.705
 20
21.675
 10
-68.8561
 20
21.4424
 10
-69.0307
 20
21.2268
 10
-69.2268
 20
21.0307
 10
-69.4424
 20
20.8561
 10
-69.675
 20
20.705
 10
-69.9221
 20
20.5791
 10
-70.1811
 20
20.4797
 10
-70.449
 20
20.4079
 10
-70.723
 20
20.3645
 10
-71
 20
20.35
  0
LWPOLYLINE
100
AcDbEntity
  8
0
100
AcDbPolyline
 90
60
 70
1
 10
70.723
 20
20.3645
 10
70.449
 20
20.4079
 10
70.1811
 20
20.4797
 10
69.9221
 20
20.5791
 10
69.675
 20
20.705
 10
69.4424
 20
20.8561
 10
69.2268
 20
21.0307
 10
69.0307
 20
21.2268
 10
68.8561
 20
21.4424
 10
68.705
 20
21.675
 10
68.5791
 20
21.9221
 10
68.4797
 20
22.1811
 10
68.4079
 20
22.449
 10
68.3645
 20
22.723
 10
68.35
 20
23
 10
68.3645
 20
23.277
 10
68.4079
 20
23.551
 10
68.4797
 20
23.8189
 10
68.5791
 20
24.0779
 10
68.705
 20
24.325
 10
68.8561
 20
24.5576
 10
69.0307
 20
24.7732
 10
69.2268
 20
24.9693
 10
69.4424
 20
25.1439
 10
69.675
 20
25.295
 10
69.9221
 20
25.4209
 10
70.1811
 20
25.5203
 10
70.449
 20
25.5921
 10
70.723
 20
25.6355
 10
71
 20
25.65
 10
71.277
 20
25.6355
 10
71.551
 20
25.5921
 10
71.8189
 20
25.5203
 10
72.0779
 20
25.4209
 10
72.325
 20
25.295
 10
72.5576
 20
25.1439
 10
72.7732
 20
24.9693
 10
72.9693
 20
24.7732
 10
73.1439
 20
24.5576
 10
73.295
 20
24.325
 10
73.4209
 20
24.0779
 10
73.5203
 20
23.8189
 10
73.5921
 20
23.551
 10
73.6355
 20
23.277
 10
73.65
 20
23
 10
73.6355
 20
22.723
 10
73.5921
 20
22.449
 10
73.5203
 20
22.1811
 10
73.4209
 20
21.9221
 10
73.295
 20
21.675
 10
73.1439
 20
21.4424
 10
72.9693
 20
21.2268
 10
72.7732
 20
21.0307
 10
72.5576
 20
20.8561
 10
72.325
 20
20.705
 10
72.0779
 20
20.5791
 10
71.8189
 20
20.4797
 10
71.551
 20
20.4079
 10
71.277
 20
20.3645
 10
71
 20
20.35
  0
LWPOLYLINE
100
AcDbEntity
  8
0
100
AcDbPolyline
 90
60
 70
1
 10
-71.277
 20
-15.6355
 10
-71.551
 20
-15.5921
 10
-71.8189
 20
-15.5203
 10
-72.0779
 20
-15.4209
 10
-72.325
 20
-15.295
 10
-72.5576
 20
-15.1439
 10
-72.7732
 20
-14.9693
 10
-72.9693
 20
-14.7732
 10
-73.1439
 20
-14.5576
 10
-73.295
 20
-14.325
 10
-73.4209
 20
-14.0779
 10
-73.5203
 20
-13.8189
 10
-73.5921
 20
-13.551
 10
-73.6355
 20
-13.277
 10
-73.65
 20
-13
 10
-73.6355
 20
-12.723
 10
-73.5921
 20
-12.449
 10
-73.5203
 20
-12.1811
 10
-73.4209
 20
-11.9221
 10
-73.295
 20
-11.675
 10
-73.1439
 20
-11.4424
 10
-72.9693
 20
-11.2268
 10
-72.7732
 20
-11.0307
 10
-72.5576
 20
-10.8561
 10
-72.325
 20
-10.705
 10
-72.0779
 20
-10.5791
 10
-71.8189
 20
-10.4797
 10
-71.551
 20
-10.4079
 10
-71.277
 20
-10.3645
 10
-71
 20
-10.35
 10
-70.723
 20
-10.3645
 10
-70.449
 20
-10.4079
 10
-70.1811
 20
-10.4797
 10
-69.9221
 20
-10.5791
 10
-69.675
 20
-10.705
 10
-69.4424
 20
-10.8561
 10
-69.2268
 20
-11.0307
 10
-69.0307
 20
-11.2268
 10
-68.8561
 20
-11.4424
 10
-68.705
 20
-11.675
 10
-68.5791
 20
-11.9221
 10
-68.4797
 20
-12.1811
 10
-68.4079
 20
-12.449
 10
-68.3645
 20
-12.723
 10
-68.35
 20
-13
 10
-68.3645
 20
-13.277
 10
-68.4079
 20
-13.551
 10
-68.4797
 20
-13.8189
 10
-68.5791
 20
-14.0779
 10
-68.705
 20
-14.325
 10
-68.8561
 20
-14.5576
 10
-69.0307
 20
-14.7732
 10
-69.2268
 20
-14.9693
 10
-69.4424
 20
-15.1439
 10
-69.675
 20
-15.295
 10
-69.9221
 20
-15.4209
 10
-70.1811
 20
-15.5203
 10
-70.449
 20
-15.5921
 10
-70.723
 20
-15.6355
 10
-71
 20
-15.65
  0
LWPOLYLINE
100
AcDbEntity
  8
0
100
AcDbPolyline
 90
60
 70
1
 10
70.723
 20
-15.6355
 10
70.449
 20
-15.5921
 10
70.1811
 20
-15.5203
 10
69.9221
 20
-15.4209
 10
69.675
 20
-15.295
 10
69.4424
 20
-15.1439
 10
69.2268
 20
-14.9693
 10
69.0307
 20
-14.7732
 10
68.8561
 20
-14.5576
 10
68.705
 20
-14.325
 10
68.5791
 20
-14.0779
 10
68.4797
 20
-13.8189
 10
68.4079
 20
-13.551
 10
68.3645
 20
-13.277
 10
68.35
 20
-13
 10
68.3645
 20
-12.723
 10
68.4079
 20
-12.449
 10
68.4797
 20
-12.1811
 10
68.5791
 20
-11.9221
 10
68.705
 20
-11.675
 10
68.8561
 20
-11.4424
 10
69.0307
 20
-11.2268
 10
69.2268
 20
-11.0307
 10
69.4424
 20
-10.8561
 10
69.675
 20
-10.705
 10
69.9221
 20
-10.5791
 10
70.1811
 20
-10.4797
 10
70.449
 20
-10.4079
 10
70.723
 20
-10.3645
 10
71
 20
-10.35
 10
71.277
 20
-10.3645
 10
71.551
 20
-10.4079
 10
71.8189
 20
-10.4797
 10
72.0779
 20
-10.5791
 10
72.325
 20
-10.705
 10
72.5576
 20
-10.8561
 10
72.7732
 20
-11.0307
 10
72.9693
 20
-11.2268
 10
73.1439
 20
-11.4424
 10
73.295
 20
-11.675
 10
73.4209
 20
-11.9221
 10
73.5203
 20
-12.1811
 10
73.5921
 20
-12.449
 10
73.6355
 20
-12.723
 10
73.65
 20
-13
 10
73.6355
 20
-13.277
 10
73.5921
 20
-13.551
 10
73.5203
 20
-13.8189
 10
73.4209
 20
-14.0779
 10
73.295
 20
-14.325
 10
73.1439
 20
-14.5576
 10
72.9693
 20
-14.7732
 10
72.7732
 20
-14.9693
 10
72.5576
 20
-15.1439
 10
72.325
 20
-15.295
 10
72.0779
 20
-15.4209
 10
71.8189
 20
-15.5203
 10
71.551
 20
-15.5921
 10
71.277
 20
-15.6355
 10
71
 20
-15.65
  0
ENDSEC
  0
EOF
