999
DXF from OpenSCAD
  0
SECTION
  2
HEADER
  9
$ACADVER
  1
AC1006
  9
$INSBASE
 10
0.0
 20
0.0
 30
0.0
  9
$EXTMIN
 10
-147
 20
-156
  9
$EXTMAX
 10
147
 20
156
  9
$LINMIN
 10
-147
 20
-156
  9
$LINMAX
 10
147
 20
156
  0
ENDSEC
  0
SECTION
  2
TABLES
  0
TABLE
  2
LTYPE
 70
1
  0
LTYPE
  2
CONTINUOUS
 70
64
  3
Solid line
 72
65
 73
0
 40
0.000000
  0
ENDTAB
  0
TABLE
  2
LAYER
 70
6
  0
LAYER
  2
0
 70
64
 62
7
  6
CONTINUOUS
  0
ENDTAB
  0
TABLE
  2
STYLE
 70
0
  0
ENDTAB
  0
ENDSEC
  0
SECTION
  2
BLOCKS
  0
ENDSEC
  0
SECTION
  2
ENTITIES
  0
LWPOLYLINE
100
AcDbEntity
  8
0
100
AcDbPolyline
 90
64
 70
1
 10
141.627
 20
-155.967
 10
142.247
 20
-155.869
 10
142.854
 20
-155.706
 10
143.44
 20
-155.481
 10
144
 20
-155.196
 10
144.527
 20
-154.854
 10
145.015
 20
-154.459
 10
145.459
 20
-154.015
 10
145.854
 20
-153.527
 10
146.196
 20
-153
 10
146.481
 20
-152.44
 10
146.706
 20
-151.854
 10
146.869
 20
-151.247
 10
146.967
 20
-150.627
 10
147
 20
-150
 10
147
 20
150
 10
146.967
 20
150.627
 10
146.869
 20
151.247
 10
146.706
 20
151.854
 10
146.481
 20
152.44
 10
146.196
 20
153
 10
145.854
 20
153.527
 10
145.459
 20
154.015
 10
145.015
 20
154.459
 10
144.527
 20
154.854
 10
144
 20
155.196
 10
143.44
 20
155.481
 10
142.854
 20
155.706
 10
142.247
 20
155.869
 10
141.627
 20
155.967
 10
141
 20
156
 10
-141
 20
156
 10
-141.627
 20
155.967
 10
-142.247
 20
155.869
 10
-142.854
 20
155.706
 10
-143.44
 20
155.481
 10
-144
 20
155.196
 10
-144.527
 20
154.854
 10
-145.015
 20
154.459
 10
-145.459
 20
154.015
 10
-145.854
 20
153.527
 10
-146.196
 20
153
 10
-146.481
 20
152.44
 10
-146.706
 20
151.854
 10
-146.869
 20
151.247
 10
-146.967
 20
150.627
 10
-147
 20
150
 10
-147
 20
-150
 10
-146.967
 20
-150.627
 10
-146.869
 20
-151.247
 10
-146.706
 20
-151.854
 10
-146.481
 20
-152.44
 10
-146.196
 20
-153
 10
-145.854
 20
-153.527
 10
-145.459
 20
-154.015
 10
-145.015
 20
-154.459
 10
-144.527
 20
-154.854
 10
-144
 20
-155.196
 10
-143.44
 20
-155.481
 10
-142.854
 20
-155.706
 10
-142.247
 20
-155.869
 10
-141.627
 20
-155.967
 10
-141
 20
-156
 10
141
 20
-156
  0
LWPOLYLINE
100
AcDbEntity
  8
0
100
AcDbPolyline
 90
60
 70
1
 10
-135.277
 20
141.365
 10
-135.551
 20
141.408
 10
-135.819
 20
141.48
 10
-136.078
 20
141.579
 10
-136.325
 20
141.705
 10
-136.558
 20
141.856
 10
-136.773
 20
142.031
 10
-136.969
 20
142.227
 10
-137.144
 20
142.442
 10
-137.295
 20
142.675
 10
-137.421
 20
142.922
 10
-137.52
 20
143.181
 10
-137.592
 20
143.449
 10
-137.635
 20
143.723
 10
-137.65
 20
144
 10
-137.635
 20
144.277
 10
-137.592
 20
144.551
 10
-137.52
 20
144.819
 10
-137.421
 20
145.078
 10
-137.295
 20
145.325
 10
-137.144
 20
145.558
 10
-136.969
 20
145.773
 10
-136.773
 20
145.969
 10
-136.558
 20
146.144
 10
-136.325
 20
146.295
 10
-136.078
 20
146.421
 10
-135.819
 20
146.52
 10
-135.551
 20
146.592
 10
-135.277
 20
146.635
 10
-135
 20
146.65
 10
-134.723
 20
146.635
 10
-134.449
 20
146.592
 10
-134.181
 20
146.52
 10
-133.922
 20
146.421
 10
-133.675
 20
146.295
 10
-133.442
 20
146.144
 10
-133.227
 20
145.969
 10
-133.031
 20
145.773
 10
-132.856
 20
145.558
 10
-132.705
 20
145.325
 10
-132.579
 20
145.078
 10
-132.48
 20
144.819
 10
-132.408
 20
144.551
 10
-132.365
 20
144.277
 10
-132.35
 20
144
 10
-132.365
 20
143.723
 10
-132.408
 20
143.449
 10
-132.48
 20
143.181
 10
-132.579
 20
142.922
 10
-132.705
 20
142.675
 10
-132.856
 20
142.442
 10
-133.031
 20
142.227
 10
-133.227
 20
142.031
 10
-133.442
 20
141.856
 10
-133.675
 20
141.705
 10
-133.922
 20
141.579
 10
-134.181
 20
141.48
 10
-134.449
 20
141.408
 10
-134.723
 20
141.365
 10
-135
 20
141.35
  0
LWPOLYLINE
100
AcDbEntity
  8
0
100
AcDbPolyline
 90
60
 70
1
 10
134.723
 20
141.365
 10
134.449
 20
141.408
 10
134.181
 20
141.48
 10
133.922
 20
141.579
 10
133.675
 20
141.705
 10
133.442
 20
141.856
 10
133.227
 20
142.031
 10
133.031
 20
142.227
 10
132.856
 20
142.442
 10
132.705
 20
142.675
 10
132.579
 20
142.922
 10
132.48
 20
143.181
 10
132.408
 20
143.449
 10
132.365
 20
143.723
 10
132.35
 20
144
 10
132.365
 20
144.277
 10
132.408
 20
144.551
 10
132.48
 20
144.819
 10
132.579
 20
145.078
 10
132.705
 20
145.325
 10
132.856
 20
145.558
 10
133.031
 20
145.773
 10
133.227
 20
145.969
 10
133.442
 20
146.144
 10
133.675
 20
146.295
 10
133.922
 20
146.421
 10
134.181
 20
146.52
 10
134.449
 20
146.592
 10
134.723
 20
146.635
 10
135
 20
146.65
 10
135.277
 20
146.635
 10
135.551
 20
146.592
 10
135.819
 20
146.52
 10
136.078
 20
146.421
 10
136.325
 20
146.295
 10
136.558
 20
146.144
 10
136.773
 20
145.969
 10
136.969
 20
145.773
 10
137.144
 20
145.558
 10
137.295
 20
145.325
 10
137.421
 20
145.078
 10
137.52
 20
144.819
 10
137.592
 20
144.551
 10
137.635
 20
144.277
 10
137.65
 20
144
 10
137.635
 20
143.723
 10
137.592
 20
143.449
 10
137.52
 20
143.181
 10
137.421
 20
142.922
 10
137.295
 20
142.675
 10
137.144
 20
142.442
 10
136.969
 20
142.227
 10
136.773
 20
142.031
 10
136.558
 20
141.856
 10
136.325
 20
141.705
 10
136.078
 20
141.579
 10
135.819
 20
141.48
 10
135.551
 20
141.408
 10
135.277
 20
141.365
 10
135
 20
141.35
  0
LWPOLYLINE
100
AcDbEntity
  8
0
100
AcDbPolyline
 90
60
 70
1
 10
-135.277
 20
-146.635
 10
-135.551
 20
-146.592
 10
-135.819
 20
-146.52
 10
-136.078
 20
-146.421
 10
-136.325
 20
-146.295
 10
-136.558
 20
-146.144
 10
-136.773
 20
-145.969
 10
-136.969
 20
-145.773
 10
-137.144
 20
-145.558
 10
-137.295
 20
-145.325
 10
-137.421
 20
-145.078
 10
-137.52
 20
-144.819
 10
-137.592
 20
-144.551
 10
-137.635
 20
-144.277
 10
-137.65
 20
-144
 10
-137.635
 20
-143.723
 10
-137.592
 20
-143.449
 10
-137.52
 20
-143.181
 10
-137.421
 20
-142.922
 10
-137.295
 20
-142.675
 10
-137.144
 20
-142.442
 10
-136.969
 20
-142.227
 10
-136.773
 20
-142.031
 10
-136.558
 20
-141.856
 10
-136.325
 20
-141.705
 10
-136.078
 20
-141.579
 10
-135.819
 20
-141.48
 10
-135.551
 20
-141.408
 10
-135.277
 20
-141.365
 10
-135
 20
-141.35
 10
-134.723
 20
-141.365
 10
-134.449
 20
-141.408
 10
-134.181
 20
-141.48
 10
-133.922
 20
-141.579
 10
-133.675
 20
-141.705
 10
-133.442
 20
-141.856
 10
-133.227
 20
-142.031
 10
-133.031
 20
-142.227
 10
-132.856
 20
-142.442
 10
-132.705
 20
-142.675
 10
-132.579
 20
-142.922
 10
-132.48
 20
-143.181
 10
-132.408
 20
-143.449
 10
-132.365
 20
-143.723
 10
-132.35
 20
-144
 10
-132.365
 20
-144.277
 10
-132.408
 20
-144.551
 10
-132.48
 20
-144.819
 10
-132.579
 20
-145.078
 10
-132.705
 20
-145.325
 10
-132.856
 20
-145.558
 10
-133.031
 20
-145.773
 10
-133.227
 20
-145.969
 10
-133.442
 20
-146.144
 10
-133.675
 20
-146.295
 10
-133.922
 20
-146.421
 10
-134.181
 20
-146.52
 10
-134.449
 20
-146.592
 10
-134.723
 20
-146.635
 10
-135
 20
-146.65
  0
LWPOLYLINE
100
AcDbEntity
  8
0
100
AcDbPolyline
 90
60
 70
1
 10
134.723
 20
-146.635
 10
134.449
 20
-146.592
 10
134.181
 20
-146.52
 10
133.922
 20
-146.421
 10
133.675
 20
-146.295
 10
133.442
 20
-146.144
 10
133.227
 20
-145.969
 10
133.031
 20
-145.773
 10
132.856
 20
-145.558
 10
132.705
 20
-145.325
 10
132.579
 20
-145.078
 10
132.48
 20
-144.819
 10
132.408
 20
-144.551
 10
132.365
 20
-144.277
 10
132.35
 20
-144
 10
132.365
 20
-143.723
 10
132.408
 20
-143.449
 10
132.48
 20
-143.181
 10
132.579
 20
-142.922
 10
132.705
 20
-142.675
 10
132.856
 20
-142.442
 10
133.031
 20
-142.227
 10
133.227
 20
-142.031
 10
133.442
 20
-141.856
 10
133.675
 20
-141.705
 10
133.922
 20
-141.579
 10
134.181
 20
-141.48
 10
134.449
 20
-141.408
 10
134.723
 20
-141.365
 10
135
 20
-141.35
 10
135.277
 20
-141.365
 10
135.551
 20
-141.408
 10
135.819
 20
-141.48
 10
136.078
 20
-141.579
 10
136.325
 20
-141.705
 10
136.558
 20
-141.856
 10
136.773
 20
-142.031
 10
136.969
 20
-142.227
 10
137.144
 20
-142.442
 10
137.295
 20
-142.675
 10
137.421
 20
-142.922
 10
137.52
 20
-143.181
 10
137.592
 20
-143.449
 10
137.635
 20
-143.723
 10
137.65
 20
-144
 10
137.635
 20
-144.277
 10
137.592
 20
-144.551
 10
137.52
 20
-144.819
 10
137.421
 20
-145.078
 10
137.295
 20
-145.325
 10
137.144
 20
-145.558
 10
136.969
 20
-145.773
 10
136.773
 20
-145.969
 10
136.558
 20
-146.144
 10
136.325
 20
-146.295
 10
136.078
 20
-146.421
 10
135.819
 20
-146.52
 10
135.551
 20
-146.592
 10
135.277
 20
-146.635
 10
135
 20
-146.65
  0
ENDSEC
  0
EOF
