999
DXF from OpenSCAD
  0
SECTION
  2
HEADER
  9
$ACADVER
  1
AC1006
  9
$INSBASE
 10
0.0
 20
0.0
 30
0.0
  9
$EXTMIN
 10
-147
 20
-160
  9
$EXTMAX
 10
147
 20
160
  9
$LINMIN
 10
-147
 20
-160
  9
$LINMAX
 10
147
 20
160
  0
ENDSEC
  0
SECTION
  2
TABLES
  0
TABLE
  2
LTYPE
 70
1
  0
LTYPE
  2
CONTINUOUS
 70
64
  3
Solid line
 72
65
 73
0
 40
0.000000
  0
ENDTAB
  0
TABLE
  2
LAYER
 70
6
  0
LAYER
  2
0
 70
64
 62
7
  6
CONTINUOUS
  0
ENDTAB
  0
TABLE
  2
STYLE
 70
0
  0
ENDTAB
  0
ENDSEC
  0
SECTION
  2
BLOCKS
  0
ENDSEC
  0
SECTION
  2
ENTITIES
  0
LWPOLYLINE
100
AcDbEntity
  8
0
100
AcDbPolyline
 90
64
 70
1
 10
141.627
 20
-159.967
 10
142.247
 20
-159.869
 10
142.854
 20
-159.706
 10
143.44
 20
-159.481
 10
144
 20
-159.196
 10
144.527
 20
-158.854
 10
145.015
 20
-158.459
 10
145.459
 20
-158.015
 10
145.854
 20
-157.527
 10
146.196
 20
-157
 10
146.481
 20
-156.44
 10
146.706
 20
-155.854
 10
146.869
 20
-155.247
 10
146.967
 20
-154.627
 10
147
 20
-154
 10
147
 20
154
 10
146.967
 20
154.627
 10
146.869
 20
155.247
 10
146.706
 20
155.854
 10
146.481
 20
156.44
 10
146.196
 20
157
 10
145.854
 20
157.527
 10
145.459
 20
158.015
 10
145.015
 20
158.459
 10
144.527
 20
158.854
 10
144
 20
159.196
 10
143.44
 20
159.481
 10
142.854
 20
159.706
 10
142.247
 20
159.869
 10
141.627
 20
159.967
 10
141
 20
160
 10
-141
 20
160
 10
-141.627
 20
159.967
 10
-142.247
 20
159.869
 10
-142.854
 20
159.706
 10
-143.44
 20
159.481
 10
-144
 20
159.196
 10
-144.527
 20
158.854
 10
-145.015
 20
158.459
 10
-145.459
 20
158.015
 10
-145.854
 20
157.527
 10
-146.196
 20
157
 10
-146.481
 20
156.44
 10
-146.706
 20
155.854
 10
-146.869
 20
155.247
 10
-146.967
 20
154.627
 10
-147
 20
154
 10
-147
 20
-154
 10
-146.967
 20
-154.627
 10
-146.869
 20
-155.247
 10
-146.706
 20
-155.854
 10
-146.481
 20
-156.44
 10
-146.196
 20
-157
 10
-145.854
 20
-157.527
 10
-145.459
 20
-158.015
 10
-145.015
 20
-158.459
 10
-144.527
 20
-158.854
 10
-144
 20
-159.196
 10
-143.44
 20
-159.481
 10
-142.854
 20
-159.706
 10
-142.247
 20
-159.869
 10
-141.627
 20
-159.967
 10
-141
 20
-160
 10
141
 20
-160
  0
LWPOLYLINE
100
AcDbEntity
  8
0
100
AcDbPolyline
 90
60
 70
1
 10
-135.277
 20
145.365
 10
-135.551
 20
145.408
 10
-135.819
 20
145.48
 10
-136.078
 20
145.579
 10
-136.325
 20
145.705
 10
-136.558
 20
145.856
 10
-136.773
 20
146.031
 10
-136.969
 20
146.227
 10
-137.144
 20
146.442
 10
-137.295
 20
146.675
 10
-137.421
 20
146.922
 10
-137.52
 20
147.181
 10
-137.592
 20
147.449
 10
-137.635
 20
147.723
 10
-137.65
 20
148
 10
-137.635
 20
148.277
 10
-137.592
 20
148.551
 10
-137.52
 20
148.819
 10
-137.421
 20
149.078
 10
-137.295
 20
149.325
 10
-137.144
 20
149.558
 10
-136.969
 20
149.773
 10
-136.773
 20
149.969
 10
-136.558
 20
150.144
 10
-136.325
 20
150.295
 10
-136.078
 20
150.421
 10
-135.819
 20
150.52
 10
-135.551
 20
150.592
 10
-135.277
 20
150.635
 10
-135
 20
150.65
 10
-134.723
 20
150.635
 10
-134.449
 20
150.592
 10
-134.181
 20
150.52
 10
-133.922
 20
150.421
 10
-133.675
 20
150.295
 10
-133.442
 20
150.144
 10
-133.227
 20
149.969
 10
-133.031
 20
149.773
 10
-132.856
 20
149.558
 10
-132.705
 20
149.325
 10
-132.579
 20
149.078
 10
-132.48
 20
148.819
 10
-132.408
 20
148.551
 10
-132.365
 20
148.277
 10
-132.35
 20
148
 10
-132.365
 20
147.723
 10
-132.408
 20
147.449
 10
-132.48
 20
147.181
 10
-132.579
 20
146.922
 10
-132.705
 20
146.675
 10
-132.856
 20
146.442
 10
-133.031
 20
146.227
 10
-133.227
 20
146.031
 10
-133.442
 20
145.856
 10
-133.675
 20
145.705
 10
-133.922
 20
145.579
 10
-134.181
 20
145.48
 10
-134.449
 20
145.408
 10
-134.723
 20
145.365
 10
-135
 20
145.35
  0
LWPOLYLINE
100
AcDbEntity
  8
0
100
AcDbPolyline
 90
60
 70
1
 10
134.723
 20
145.365
 10
134.449
 20
145.408
 10
134.181
 20
145.48
 10
133.922
 20
145.579
 10
133.675
 20
145.705
 10
133.442
 20
145.856
 10
133.227
 20
146.031
 10
133.031
 20
146.227
 10
132.856
 20
146.442
 10
132.705
 20
146.675
 10
132.579
 20
146.922
 10
132.48
 20
147.181
 10
132.408
 20
147.449
 10
132.365
 20
147.723
 10
132.35
 20
148
 10
132.365
 20
148.277
 10
132.408
 20
148.551
 10
132.48
 20
148.819
 10
132.579
 20
149.078
 10
132.705
 20
149.325
 10
132.856
 20
149.558
 10
133.031
 20
149.773
 10
133.227
 20
149.969
 10
133.442
 20
150.144
 10
133.675
 20
150.295
 10
133.922
 20
150.421
 10
134.181
 20
150.52
 10
134.449
 20
150.592
 10
134.723
 20
150.635
 10
135
 20
150.65
 10
135.277
 20
150.635
 10
135.551
 20
150.592
 10
135.819
 20
150.52
 10
136.078
 20
150.421
 10
136.325
 20
150.295
 10
136.558
 20
150.144
 10
136.773
 20
149.969
 10
136.969
 20
149.773
 10
137.144
 20
149.558
 10
137.295
 20
149.325
 10
137.421
 20
149.078
 10
137.52
 20
148.819
 10
137.592
 20
148.551
 10
137.635
 20
148.277
 10
137.65
 20
148
 10
137.635
 20
147.723
 10
137.592
 20
147.449
 10
137.52
 20
147.181
 10
137.421
 20
146.922
 10
137.295
 20
146.675
 10
137.144
 20
146.442
 10
136.969
 20
146.227
 10
136.773
 20
146.031
 10
136.558
 20
145.856
 10
136.325
 20
145.705
 10
136.078
 20
145.579
 10
135.819
 20
145.48
 10
135.551
 20
145.408
 10
135.277
 20
145.365
 10
135
 20
145.35
  0
LWPOLYLINE
100
AcDbEntity
  8
0
100
AcDbPolyline
 90
60
 70
1
 10
-135.277
 20
-150.635
 10
-135.551
 20
-150.592
 10
-135.819
 20
-150.52
 10
-136.078
 20
-150.421
 10
-136.325
 20
-150.295
 10
-136.558
 20
-150.144
 10
-136.773
 20
-149.969
 10
-136.969
 20
-149.773
 10
-137.144
 20
-149.558
 10
-137.295
 20
-149.325
 10
-137.421
 20
-149.078
 10
-137.52
 20
-148.819
 10
-137.592
 20
-148.551
 10
-137.635
 20
-148.277
 10
-137.65
 20
-148
 10
-137.635
 20
-147.723
 10
-137.592
 20
-147.449
 10
-137.52
 20
-147.181
 10
-137.421
 20
-146.922
 10
-137.295
 20
-146.675
 10
-137.144
 20
-146.442
 10
-136.969
 20
-146.227
 10
-136.773
 20
-146.031
 10
-136.558
 20
-145.856
 10
-136.325
 20
-145.705
 10
-136.078
 20
-145.579
 10
-135.819
 20
-145.48
 10
-135.551
 20
-145.408
 10
-135.277
 20
-145.365
 10
-135
 20
-145.35
 10
-134.723
 20
-145.365
 10
-134.449
 20
-145.408
 10
-134.181
 20
-145.48
 10
-133.922
 20
-145.579
 10
-133.675
 20
-145.705
 10
-133.442
 20
-145.856
 10
-133.227
 20
-146.031
 10
-133.031
 20
-146.227
 10
-132.856
 20
-146.442
 10
-132.705
 20
-146.675
 10
-132.579
 20
-146.922
 10
-132.48
 20
-147.181
 10
-132.408
 20
-147.449
 10
-132.365
 20
-147.723
 10
-132.35
 20
-148
 10
-132.365
 20
-148.277
 10
-132.408
 20
-148.551
 10
-132.48
 20
-148.819
 10
-132.579
 20
-149.078
 10
-132.705
 20
-149.325
 10
-132.856
 20
-149.558
 10
-133.031
 20
-149.773
 10
-133.227
 20
-149.969
 10
-133.442
 20
-150.144
 10
-133.675
 20
-150.295
 10
-133.922
 20
-150.421
 10
-134.181
 20
-150.52
 10
-134.449
 20
-150.592
 10
-134.723
 20
-150.635
 10
-135
 20
-150.65
  0
LWPOLYLINE
100
AcDbEntity
  8
0
100
AcDbPolyline
 90
60
 70
1
 10
134.723
 20
-150.635
 10
134.449
 20
-150.592
 10
134.181
 20
-150.52
 10
133.922
 20
-150.421
 10
133.675
 20
-150.295
 10
133.442
 20
-150.144
 10
133.227
 20
-149.969
 10
133.031
 20
-149.773
 10
132.856
 20
-149.558
 10
132.705
 20
-149.325
 10
132.579
 20
-149.078
 10
132.48
 20
-148.819
 10
132.408
 20
-148.551
 10
132.365
 20
-148.277
 10
132.35
 20
-148
 10
132.365
 20
-147.723
 10
132.408
 20
-147.449
 10
132.48
 20
-147.181
 10
132.579
 20
-146.922
 10
132.705
 20
-146.675
 10
132.856
 20
-146.442
 10
133.031
 20
-146.227
 10
133.227
 20
-146.031
 10
133.442
 20
-145.856
 10
133.675
 20
-145.705
 10
133.922
 20
-145.579
 10
134.181
 20
-145.48
 10
134.449
 20
-145.408
 10
134.723
 20
-145.365
 10
135
 20
-145.35
 10
135.277
 20
-145.365
 10
135.551
 20
-145.408
 10
135.819
 20
-145.48
 10
136.078
 20
-145.579
 10
136.325
 20
-145.705
 10
136.558
 20
-145.856
 10
136.773
 20
-146.031
 10
136.969
 20
-146.227
 10
137.144
 20
-146.442
 10
137.295
 20
-146.675
 10
137.421
 20
-146.922
 10
137.52
 20
-147.181
 10
137.592
 20
-147.449
 10
137.635
 20
-147.723
 10
137.65
 20
-148
 10
137.635
 20
-148.277
 10
137.592
 20
-148.551
 10
137.52
 20
-148.819
 10
137.421
 20
-149.078
 10
137.295
 20
-149.325
 10
137.144
 20
-149.558
 10
136.969
 20
-149.773
 10
136.773
 20
-149.969
 10
136.558
 20
-150.144
 10
136.325
 20
-150.295
 10
136.078
 20
-150.421
 10
135.819
 20
-150.52
 10
135.551
 20
-150.592
 10
135.277
 20
-150.635
 10
135
 20
-150.65
  0
ENDSEC
  0
EOF
